<?xml version="1.0" standalone="no"?>
<mlt LC_NUMERIC="C" version="7.24.0" title="Shotcut version 24.04.28" producer="main_bin">
  <profile description="automatic" width="720" height="1280" progressive="1" sample_aspect_num="1" sample_aspect_den="1" display_aspect_num="9" display_aspect_den="16" frame_rate_num="30" frame_rate_den="1" colorspace="709"/>
  <chain id="chain0" in="00:00:03.200" out="00:00:05.567">
    <property name="length">00:00:08.167</property>
    <property name="eof">pause</property>
    <property name="resource">C:/Users/Lenovo-pc/Downloads/IMG_3377.MOV</property>
    <property name="mlt_service">avformat-novalidate</property>
    <property name="meta.media.nb_streams">2</property>
    <property name="meta.media.0.stream.type">audio</property>
    <property name="meta.media.0.codec.sample_fmt">fltp</property>
    <property name="meta.media.0.codec.sample_rate">44100</property>
    <property name="meta.media.0.codec.channels">2</property>
    <property name="meta.media.0.codec.layout">stereo</property>
    <property name="meta.media.0.codec.name">aac</property>
    <property name="meta.media.0.codec.long_name">AAC (Advanced Audio Coding)</property>
    <property name="meta.media.0.codec.bit_rate">152180</property>
    <property name="meta.attr.0.stream.creation_time.markup">2024-06-10T13:36:52.000000Z</property>
    <property name="meta.attr.0.stream.handler_name.markup">Core Media Audio</property>
    <property name="meta.attr.0.stream.vendor_id.markup">[0][0][0][0]</property>
    <property name="meta.media.1.stream.type">video</property>
    <property name="meta.media.1.stream.frame_rate">30</property>
    <property name="meta.media.1.stream.sample_aspect_ratio">0</property>
    <property name="meta.media.1.codec.width">1280</property>
    <property name="meta.media.1.codec.height">720</property>
    <property name="meta.media.1.codec.rotate">90</property>
    <property name="meta.media.1.codec.pix_fmt">yuv420p</property>
    <property name="meta.media.1.codec.sample_aspect_ratio">0</property>
    <property name="meta.media.1.codec.colorspace">709</property>
    <property name="meta.media.1.codec.color_trc">1</property>
    <property name="meta.media.1.codec.name">h264</property>
    <property name="meta.media.1.codec.long_name">H.264 / AVC / MPEG-4 AVC / MPEG-4 part 10</property>
    <property name="meta.media.1.codec.bit_rate">2331522</property>
    <property name="meta.attr.1.stream.creation_time.markup">2024-06-10T13:36:52.000000Z</property>
    <property name="meta.attr.1.stream.handler_name.markup">Core Media Video</property>
    <property name="meta.attr.1.stream.vendor_id.markup">[0][0][0][0]</property>
    <property name="meta.attr.major_brand.markup">mp42</property>
    <property name="meta.attr.minor_version.markup">1</property>
    <property name="meta.attr.compatible_brands.markup">isommp41mp42</property>
    <property name="meta.attr.creation_time.markup">2024-06-10T13:36:52.000000Z</property>
    <property name="seekable">1</property>
    <property name="meta.media.sample_aspect_num">1</property>
    <property name="meta.media.sample_aspect_den">1</property>
    <property name="audio_index">0</property>
    <property name="video_index">1</property>
    <property name="creation_time">2024-06-10T13:36:52</property>
    <property name="vstream">0</property>
    <property name="meta.media.frame_rate_num">30</property>
    <property name="meta.media.frame_rate_den">1</property>
    <property name="meta.media.colorspace">709</property>
    <property name="meta.media.color_trc">1</property>
    <property name="meta.media.has_b_frames">1</property>
    <property name="meta.media.width">720</property>
    <property name="meta.media.height">1280</property>
    <property name="meta.media.color_range">mpeg</property>
    <property name="astream">0</property>
    <property name="shotcut:skipConvert">1</property>
    <property name="xml">was here</property>
    <property name="shotcut:hash">f60bf6f30490ef698b8ddad38737c443</property>
    <property name="meta.media.top_field_first">0</property>
    <property name="meta.media.progressive">1</property>
    <property name="ignore_points">1</property>
    <property name="shotcut:caption">IMG_3377.MOV</property>
  </chain>
  <producer id="producer0" in="00:00:00.000" out="00:00:03.967">
    <property name="length">04:00:00.000</property>
    <property name="eof">pause</property>
    <property name="resource">Still_transparent.png</property>
    <property name="ttl">1</property>
    <property name="aspect_ratio">1</property>
    <property name="meta.media.progressive">1</property>
    <property name="seekable">1</property>
    <property name="format">2</property>
    <property name="meta.media.width">720</property>
    <property name="meta.media.height">1280</property>
    <property name="mlt_service">qimage</property>
    <property name="creation_time">2024-06-10T16:21:14</property>
    <property name="shotcut:skipConvert">1</property>
    <property name="xml">was here</property>
    <property name="shotcut:hash">1a75f9d2c23932a865044b2c3709e2da</property>
    <property name="shotcut:caption">Still_transparent.png</property>
    <property name="ignore_points">1</property>
  </producer>
  <chain id="chain1" in="00:00:01.967" out="00:00:03.533">
    <property name="length">00:00:03.567</property>
    <property name="eof">pause</property>
    <property name="resource">C:/Users/Lenovo-pc/Downloads/IMG_3406.MOV</property>
    <property name="mlt_service">avformat-novalidate</property>
    <property name="meta.media.nb_streams">2</property>
    <property name="meta.media.0.stream.type">audio</property>
    <property name="meta.media.0.codec.sample_fmt">fltp</property>
    <property name="meta.media.0.codec.sample_rate">44100</property>
    <property name="meta.media.0.codec.channels">2</property>
    <property name="meta.media.0.codec.layout">stereo</property>
    <property name="meta.media.0.codec.name">aac</property>
    <property name="meta.media.0.codec.long_name">AAC (Advanced Audio Coding)</property>
    <property name="meta.media.0.codec.bit_rate">160558</property>
    <property name="meta.attr.0.stream.creation_time.markup">2024-06-10T13:37:46.000000Z</property>
    <property name="meta.attr.0.stream.handler_name.markup">Core Media Audio</property>
    <property name="meta.attr.0.stream.vendor_id.markup">[0][0][0][0]</property>
    <property name="meta.media.1.stream.type">video</property>
    <property name="meta.media.1.stream.frame_rate">30</property>
    <property name="meta.media.1.stream.sample_aspect_ratio">0</property>
    <property name="meta.media.1.codec.width">1280</property>
    <property name="meta.media.1.codec.height">720</property>
    <property name="meta.media.1.codec.rotate">90</property>
    <property name="meta.media.1.codec.pix_fmt">yuv420p</property>
    <property name="meta.media.1.codec.sample_aspect_ratio">0</property>
    <property name="meta.media.1.codec.colorspace">709</property>
    <property name="meta.media.1.codec.color_trc">1</property>
    <property name="meta.media.1.codec.name">h264</property>
    <property name="meta.media.1.codec.long_name">H.264 / AVC / MPEG-4 AVC / MPEG-4 part 10</property>
    <property name="meta.media.1.codec.bit_rate">1014354</property>
    <property name="meta.attr.1.stream.creation_time.markup">2024-06-10T13:37:46.000000Z</property>
    <property name="meta.attr.1.stream.handler_name.markup">Core Media Video</property>
    <property name="meta.attr.1.stream.vendor_id.markup">[0][0][0][0]</property>
    <property name="meta.attr.major_brand.markup">mp42</property>
    <property name="meta.attr.minor_version.markup">1</property>
    <property name="meta.attr.compatible_brands.markup">isommp41mp42</property>
    <property name="meta.attr.creation_time.markup">2024-06-10T13:37:46.000000Z</property>
    <property name="seekable">1</property>
    <property name="meta.media.sample_aspect_num">1</property>
    <property name="meta.media.sample_aspect_den">1</property>
    <property name="audio_index">0</property>
    <property name="video_index">1</property>
    <property name="creation_time">2024-06-10T13:37:46</property>
    <property name="vstream">0</property>
    <property name="meta.media.frame_rate_num">30</property>
    <property name="meta.media.frame_rate_den">1</property>
    <property name="meta.media.colorspace">709</property>
    <property name="meta.media.color_trc">1</property>
    <property name="meta.media.has_b_frames">1</property>
    <property name="meta.media.width">720</property>
    <property name="meta.media.height">1280</property>
    <property name="meta.media.color_range">mpeg</property>
    <property name="astream">0</property>
    <property name="shotcut:skipConvert">1</property>
    <property name="xml">was here</property>
    <property name="shotcut:hash">071d6b0ada134243f38c75fb4fb4b0d7</property>
    <property name="meta.media.top_field_first">0</property>
    <property name="meta.media.progressive">1</property>
    <property name="ignore_points">1</property>
    <property name="shotcut:caption">IMG_3406.MOV</property>
  </chain>
  <chain id="chain2" out="00:00:02.333">
    <property name="length">00:00:04.500</property>
    <property name="eof">pause</property>
    <property name="resource">C:/Users/Lenovo-pc/Downloads/IMG_3404.MOV</property>
    <property name="mlt_service">avformat-novalidate</property>
    <property name="meta.media.nb_streams">2</property>
    <property name="meta.media.0.stream.type">audio</property>
    <property name="meta.media.0.codec.sample_fmt">fltp</property>
    <property name="meta.media.0.codec.sample_rate">44100</property>
    <property name="meta.media.0.codec.channels">2</property>
    <property name="meta.media.0.codec.layout">stereo</property>
    <property name="meta.media.0.codec.name">aac</property>
    <property name="meta.media.0.codec.long_name">AAC (Advanced Audio Coding)</property>
    <property name="meta.media.0.codec.bit_rate">176617</property>
    <property name="meta.attr.0.stream.creation_time.markup">2024-06-10T13:37:50.000000Z</property>
    <property name="meta.attr.0.stream.handler_name.markup">Core Media Audio</property>
    <property name="meta.attr.0.stream.vendor_id.markup">[0][0][0][0]</property>
    <property name="meta.media.1.stream.type">video</property>
    <property name="meta.media.1.stream.frame_rate">30</property>
    <property name="meta.media.1.stream.sample_aspect_ratio">0</property>
    <property name="meta.media.1.codec.width">1280</property>
    <property name="meta.media.1.codec.height">720</property>
    <property name="meta.media.1.codec.rotate">180</property>
    <property name="meta.media.1.codec.pix_fmt">yuv420p</property>
    <property name="meta.media.1.codec.sample_aspect_ratio">0</property>
    <property name="meta.media.1.codec.colorspace">709</property>
    <property name="meta.media.1.codec.color_trc">1</property>
    <property name="meta.media.1.codec.name">h264</property>
    <property name="meta.media.1.codec.long_name">H.264 / AVC / MPEG-4 AVC / MPEG-4 part 10</property>
    <property name="meta.media.1.codec.bit_rate">2497470</property>
    <property name="meta.attr.1.stream.creation_time.markup">2024-06-10T13:37:50.000000Z</property>
    <property name="meta.attr.1.stream.handler_name.markup">Core Media Video</property>
    <property name="meta.attr.1.stream.vendor_id.markup">[0][0][0][0]</property>
    <property name="meta.attr.major_brand.markup">mp42</property>
    <property name="meta.attr.minor_version.markup">1</property>
    <property name="meta.attr.compatible_brands.markup">isommp41mp42</property>
    <property name="meta.attr.creation_time.markup">2024-06-10T13:37:50.000000Z</property>
    <property name="seekable">1</property>
    <property name="meta.media.sample_aspect_num">1</property>
    <property name="meta.media.sample_aspect_den">1</property>
    <property name="audio_index">0</property>
    <property name="video_index">1</property>
    <property name="creation_time">2024-06-10T13:37:50</property>
    <property name="vstream">0</property>
    <property name="meta.media.frame_rate_num">30</property>
    <property name="meta.media.frame_rate_den">1</property>
    <property name="meta.media.colorspace">709</property>
    <property name="meta.media.color_trc">1</property>
    <property name="meta.media.has_b_frames">1</property>
    <property name="meta.media.width">1280</property>
    <property name="meta.media.height">720</property>
    <property name="meta.media.aspect_ratio">1</property>
    <property name="meta.media.color_range">mpeg</property>
    <property name="astream">0</property>
    <property name="shotcut:skipConvert">1</property>
    <property name="xml">was here</property>
    <property name="shotcut:hash">e955429877158288c06ddd6dd058387e</property>
    <property name="meta.media.top_field_first">0</property>
    <property name="meta.media.progressive">1</property>
    <property name="ignore_points">1</property>
    <property name="shotcut:caption">IMG_3404.MOV</property>
  </chain>
  <chain id="chain3" out="00:00:00.700">
    <property name="length">00:00:01.567</property>
    <property name="eof">pause</property>
    <property name="resource">C:/Users/Lenovo-pc/Downloads/IMG_3396.MOV</property>
    <property name="mlt_service">avformat-novalidate</property>
    <property name="meta.media.nb_streams">2</property>
    <property name="meta.media.0.stream.type">audio</property>
    <property name="meta.media.0.codec.sample_fmt">fltp</property>
    <property name="meta.media.0.codec.sample_rate">44100</property>
    <property name="meta.media.0.codec.channels">2</property>
    <property name="meta.media.0.codec.layout">stereo</property>
    <property name="meta.media.0.codec.name">aac</property>
    <property name="meta.media.0.codec.long_name">AAC (Advanced Audio Coding)</property>
    <property name="meta.media.0.codec.bit_rate">178491</property>
    <property name="meta.attr.0.stream.creation_time.markup">2024-06-10T13:37:40.000000Z</property>
    <property name="meta.attr.0.stream.handler_name.markup">Core Media Audio</property>
    <property name="meta.attr.0.stream.vendor_id.markup">[0][0][0][0]</property>
    <property name="meta.media.1.stream.type">video</property>
    <property name="meta.media.1.stream.frame_rate">30.0319</property>
    <property name="meta.media.1.stream.sample_aspect_ratio">0</property>
    <property name="meta.media.1.codec.width">1280</property>
    <property name="meta.media.1.codec.height">720</property>
    <property name="meta.media.1.codec.rotate">90</property>
    <property name="meta.media.1.codec.pix_fmt">yuv420p</property>
    <property name="meta.media.1.codec.sample_aspect_ratio">0</property>
    <property name="meta.media.1.codec.colorspace">709</property>
    <property name="meta.media.1.codec.color_trc">1</property>
    <property name="meta.media.1.codec.name">h264</property>
    <property name="meta.media.1.codec.long_name">H.264 / AVC / MPEG-4 AVC / MPEG-4 part 10</property>
    <property name="meta.media.1.codec.bit_rate">589132</property>
    <property name="meta.attr.1.stream.creation_time.markup">2024-06-10T13:37:40.000000Z</property>
    <property name="meta.attr.1.stream.handler_name.markup">Core Media Video</property>
    <property name="meta.attr.1.stream.vendor_id.markup">[0][0][0][0]</property>
    <property name="meta.attr.major_brand.markup">mp42</property>
    <property name="meta.attr.minor_version.markup">1</property>
    <property name="meta.attr.compatible_brands.markup">isommp41mp42</property>
    <property name="meta.attr.creation_time.markup">2024-06-10T13:37:40.000000Z</property>
    <property name="seekable">1</property>
    <property name="meta.media.sample_aspect_num">1</property>
    <property name="meta.media.sample_aspect_den">1</property>
    <property name="audio_index">0</property>
    <property name="video_index">1</property>
    <property name="creation_time">2024-06-10T13:37:40</property>
    <property name="vstream">0</property>
    <property name="meta.media.frame_rate_num">9400</property>
    <property name="meta.media.frame_rate_den">313</property>
    <property name="meta.media.colorspace">709</property>
    <property name="meta.media.color_trc">1</property>
    <property name="meta.media.has_b_frames">1</property>
    <property name="meta.media.width">720</property>
    <property name="meta.media.height">1280</property>
    <property name="meta.media.color_range">mpeg</property>
    <property name="astream">0</property>
    <property name="shotcut:skipConvert">1</property>
    <property name="xml">was here</property>
    <property name="shotcut:hash">03161f8e737e82425907a4eab3e17c82</property>
    <property name="meta.media.top_field_first">0</property>
    <property name="meta.media.progressive">1</property>
    <property name="ignore_points">1</property>
    <property name="shotcut:caption">IMG_3396.MOV</property>
  </chain>
  <chain id="chain4" out="00:00:01.667">
    <property name="length">00:00:01.700</property>
    <property name="eof">pause</property>
    <property name="resource">C:/Users/Lenovo-pc/Downloads/IMG_3416.MOV</property>
    <property name="mlt_service">avformat-novalidate</property>
    <property name="meta.media.nb_streams">2</property>
    <property name="meta.media.0.stream.type">audio</property>
    <property name="meta.media.0.codec.sample_fmt">fltp</property>
    <property name="meta.media.0.codec.sample_rate">44100</property>
    <property name="meta.media.0.codec.channels">2</property>
    <property name="meta.media.0.codec.layout">stereo</property>
    <property name="meta.media.0.codec.name">aac</property>
    <property name="meta.media.0.codec.long_name">AAC (Advanced Audio Coding)</property>
    <property name="meta.media.0.codec.bit_rate">173516</property>
    <property name="meta.attr.0.stream.creation_time.markup">2024-06-10T16:48:24.000000Z</property>
    <property name="meta.attr.0.stream.handler_name.markup">Core Media Audio</property>
    <property name="meta.attr.0.stream.vendor_id.markup">[0][0][0][0]</property>
    <property name="meta.media.1.stream.type">video</property>
    <property name="meta.media.1.stream.frame_rate">30.0294</property>
    <property name="meta.media.1.stream.sample_aspect_ratio">0</property>
    <property name="meta.media.1.codec.width">1280</property>
    <property name="meta.media.1.codec.height">720</property>
    <property name="meta.media.1.codec.rotate">90</property>
    <property name="meta.media.1.codec.pix_fmt">yuv420p</property>
    <property name="meta.media.1.codec.sample_aspect_ratio">0</property>
    <property name="meta.media.1.codec.colorspace">709</property>
    <property name="meta.media.1.codec.color_trc">1</property>
    <property name="meta.media.1.codec.name">h264</property>
    <property name="meta.media.1.codec.long_name">H.264 / AVC / MPEG-4 AVC / MPEG-4 part 10</property>
    <property name="meta.media.1.codec.bit_rate">2375015</property>
    <property name="meta.attr.1.stream.creation_time.markup">2024-06-10T16:48:24.000000Z</property>
    <property name="meta.attr.1.stream.handler_name.markup">Core Media Video</property>
    <property name="meta.attr.1.stream.vendor_id.markup">[0][0][0][0]</property>
    <property name="meta.attr.major_brand.markup">mp42</property>
    <property name="meta.attr.minor_version.markup">1</property>
    <property name="meta.attr.compatible_brands.markup">isommp41mp42</property>
    <property name="meta.attr.creation_time.markup">2024-06-10T16:48:24.000000Z</property>
    <property name="seekable">1</property>
    <property name="meta.media.sample_aspect_num">1</property>
    <property name="meta.media.sample_aspect_den">1</property>
    <property name="audio_index">0</property>
    <property name="video_index">1</property>
    <property name="creation_time">2024-06-10T16:48:24</property>
    <property name="vstream">0</property>
    <property name="meta.media.frame_rate_num">30600</property>
    <property name="meta.media.frame_rate_den">1019</property>
    <property name="meta.media.colorspace">709</property>
    <property name="meta.media.color_trc">1</property>
    <property name="meta.media.has_b_frames">1</property>
    <property name="meta.media.width">720</property>
    <property name="meta.media.height">1280</property>
    <property name="meta.media.color_range">mpeg</property>
    <property name="astream">0</property>
    <property name="shotcut:skipConvert">1</property>
    <property name="xml">was here</property>
    <property name="shotcut:hash">b178ec3aa176aa8e5d99f8841baa54bc</property>
    <property name="meta.media.top_field_first">0</property>
    <property name="meta.media.progressive">1</property>
    <property name="ignore_points">1</property>
    <property name="shotcut:caption">IMG_3416.MOV</property>
  </chain>
  <chain id="chain5" out="00:00:01.700">
    <property name="length">00:00:01.733</property>
    <property name="eof">pause</property>
    <property name="resource">C:/Users/Lenovo-pc/Downloads/IMG_3422.MOV</property>
    <property name="mlt_service">avformat-novalidate</property>
    <property name="meta.media.nb_streams">2</property>
    <property name="meta.media.0.stream.type">audio</property>
    <property name="meta.media.0.codec.sample_fmt">fltp</property>
    <property name="meta.media.0.codec.sample_rate">44100</property>
    <property name="meta.media.0.codec.channels">2</property>
    <property name="meta.media.0.codec.layout">stereo</property>
    <property name="meta.media.0.codec.name">aac</property>
    <property name="meta.media.0.codec.long_name">AAC (Advanced Audio Coding)</property>
    <property name="meta.media.0.codec.bit_rate">155303</property>
    <property name="meta.attr.0.stream.creation_time.markup">2024-06-10T16:48:27.000000Z</property>
    <property name="meta.attr.0.stream.handler_name.markup">Core Media Audio</property>
    <property name="meta.attr.0.stream.vendor_id.markup">[0][0][0][0]</property>
    <property name="meta.media.1.stream.type">video</property>
    <property name="meta.media.1.stream.frame_rate">30</property>
    <property name="meta.media.1.stream.sample_aspect_ratio">0</property>
    <property name="meta.media.1.codec.width">1280</property>
    <property name="meta.media.1.codec.height">720</property>
    <property name="meta.media.1.codec.rotate">90</property>
    <property name="meta.media.1.codec.pix_fmt">yuv420p</property>
    <property name="meta.media.1.codec.sample_aspect_ratio">0</property>
    <property name="meta.media.1.codec.colorspace">709</property>
    <property name="meta.media.1.codec.color_trc">1</property>
    <property name="meta.media.1.codec.name">h264</property>
    <property name="meta.media.1.codec.long_name">H.264 / AVC / MPEG-4 AVC / MPEG-4 part 10</property>
    <property name="meta.media.1.codec.bit_rate">907855</property>
    <property name="meta.attr.1.stream.creation_time.markup">2024-06-10T16:48:27.000000Z</property>
    <property name="meta.attr.1.stream.handler_name.markup">Core Media Video</property>
    <property name="meta.attr.1.stream.vendor_id.markup">[0][0][0][0]</property>
    <property name="meta.attr.major_brand.markup">mp42</property>
    <property name="meta.attr.minor_version.markup">1</property>
    <property name="meta.attr.compatible_brands.markup">isommp41mp42</property>
    <property name="meta.attr.creation_time.markup">2024-06-10T16:48:27.000000Z</property>
    <property name="seekable">1</property>
    <property name="meta.media.sample_aspect_num">1</property>
    <property name="meta.media.sample_aspect_den">1</property>
    <property name="audio_index">0</property>
    <property name="video_index">1</property>
    <property name="creation_time">2024-06-10T16:48:27</property>
    <property name="vstream">0</property>
    <property name="meta.media.frame_rate_num">30</property>
    <property name="meta.media.frame_rate_den">1</property>
    <property name="meta.media.colorspace">709</property>
    <property name="meta.media.color_trc">1</property>
    <property name="meta.media.has_b_frames">1</property>
    <property name="meta.media.width">720</property>
    <property name="meta.media.height">1280</property>
    <property name="meta.media.color_range">mpeg</property>
    <property name="astream">0</property>
    <property name="shotcut:skipConvert">1</property>
    <property name="xml">was here</property>
    <property name="shotcut:hash">a79ee59c832712103ac9860f8a67aef0</property>
    <property name="meta.media.top_field_first">0</property>
    <property name="meta.media.progressive">1</property>
    <property name="ignore_points">1</property>
    <property name="shotcut:caption">IMG_3422.MOV</property>
  </chain>
  <chain id="chain6" out="00:00:00.933">
    <property name="length">00:00:00.967</property>
    <property name="eof">pause</property>
    <property name="resource">C:/Users/Lenovo-pc/Downloads/IMG_3395.MOV</property>
    <property name="mlt_service">avformat-novalidate</property>
    <property name="meta.media.nb_streams">2</property>
    <property name="meta.media.0.stream.type">audio</property>
    <property name="meta.media.0.codec.sample_fmt">fltp</property>
    <property name="meta.media.0.codec.sample_rate">44100</property>
    <property name="meta.media.0.codec.channels">2</property>
    <property name="meta.media.0.codec.layout">stereo</property>
    <property name="meta.media.0.codec.name">aac</property>
    <property name="meta.media.0.codec.long_name">AAC (Advanced Audio Coding)</property>
    <property name="meta.media.0.codec.bit_rate">177112</property>
    <property name="meta.attr.0.stream.creation_time.markup">2024-06-10T13:37:36.000000Z</property>
    <property name="meta.attr.0.stream.handler_name.markup">Core Media Audio</property>
    <property name="meta.attr.0.stream.vendor_id.markup">[0][0][0][0]</property>
    <property name="meta.media.1.stream.type">video</property>
    <property name="meta.media.1.stream.frame_rate">30</property>
    <property name="meta.media.1.stream.sample_aspect_ratio">0</property>
    <property name="meta.media.1.codec.width">1280</property>
    <property name="meta.media.1.codec.height">720</property>
    <property name="meta.media.1.codec.rotate">90</property>
    <property name="meta.media.1.codec.pix_fmt">yuv420p</property>
    <property name="meta.media.1.codec.sample_aspect_ratio">0</property>
    <property name="meta.media.1.codec.colorspace">709</property>
    <property name="meta.media.1.codec.color_trc">1</property>
    <property name="meta.media.1.codec.name">h264</property>
    <property name="meta.media.1.codec.long_name">H.264 / AVC / MPEG-4 AVC / MPEG-4 part 10</property>
    <property name="meta.media.1.codec.bit_rate">857991</property>
    <property name="meta.attr.1.stream.creation_time.markup">2024-06-10T13:37:36.000000Z</property>
    <property name="meta.attr.1.stream.handler_name.markup">Core Media Video</property>
    <property name="meta.attr.1.stream.vendor_id.markup">[0][0][0][0]</property>
    <property name="meta.attr.major_brand.markup">mp42</property>
    <property name="meta.attr.minor_version.markup">1</property>
    <property name="meta.attr.compatible_brands.markup">isommp41mp42</property>
    <property name="meta.attr.creation_time.markup">2024-06-10T13:37:36.000000Z</property>
    <property name="seekable">1</property>
    <property name="meta.media.sample_aspect_num">1</property>
    <property name="meta.media.sample_aspect_den">1</property>
    <property name="audio_index">0</property>
    <property name="video_index">1</property>
    <property name="creation_time">2024-06-10T13:37:36</property>
    <property name="vstream">0</property>
    <property name="meta.media.frame_rate_num">30</property>
    <property name="meta.media.frame_rate_den">1</property>
    <property name="meta.media.colorspace">709</property>
    <property name="meta.media.color_trc">1</property>
    <property name="meta.media.has_b_frames">1</property>
    <property name="meta.media.width">720</property>
    <property name="meta.media.height">1280</property>
    <property name="meta.media.color_range">mpeg</property>
    <property name="astream">0</property>
    <property name="shotcut:skipConvert">1</property>
    <property name="xml">was here</property>
    <property name="shotcut:hash">c47917fc70074961ce4cd79cfd453666</property>
    <property name="meta.media.top_field_first">0</property>
    <property name="meta.media.progressive">1</property>
    <property name="ignore_points">1</property>
    <property name="shotcut:caption">IMG_3395.MOV</property>
  </chain>
  <chain id="chain7" out="00:00:01.233">
    <property name="length">00:00:01.267</property>
    <property name="eof">pause</property>
    <property name="resource">C:/Users/Lenovo-pc/Downloads/IMG_3435.MOV</property>
    <property name="mlt_service">avformat-novalidate</property>
    <property name="meta.media.nb_streams">2</property>
    <property name="meta.media.0.stream.type">audio</property>
    <property name="meta.media.0.codec.sample_fmt">fltp</property>
    <property name="meta.media.0.codec.sample_rate">44100</property>
    <property name="meta.media.0.codec.channels">2</property>
    <property name="meta.media.0.codec.layout">stereo</property>
    <property name="meta.media.0.codec.name">aac</property>
    <property name="meta.media.0.codec.long_name">AAC (Advanced Audio Coding)</property>
    <property name="meta.media.0.codec.bit_rate">130740</property>
    <property name="meta.attr.0.stream.creation_time.markup">2024-06-10T18:02:44.000000Z</property>
    <property name="meta.attr.0.stream.handler_name.markup">Core Media Audio</property>
    <property name="meta.attr.0.stream.vendor_id.markup">[0][0][0][0]</property>
    <property name="meta.media.1.stream.type">video</property>
    <property name="meta.media.1.stream.frame_rate">30</property>
    <property name="meta.media.1.stream.sample_aspect_ratio">0</property>
    <property name="meta.media.1.codec.width">1280</property>
    <property name="meta.media.1.codec.height">720</property>
    <property name="meta.media.1.codec.rotate">90</property>
    <property name="meta.media.1.codec.pix_fmt">yuv420p</property>
    <property name="meta.media.1.codec.sample_aspect_ratio">0</property>
    <property name="meta.media.1.codec.colorspace">709</property>
    <property name="meta.media.1.codec.color_trc">1</property>
    <property name="meta.media.1.codec.name">h264</property>
    <property name="meta.media.1.codec.long_name">H.264 / AVC / MPEG-4 AVC / MPEG-4 part 10</property>
    <property name="meta.media.1.codec.bit_rate">2475663</property>
    <property name="meta.attr.1.stream.creation_time.markup">2024-06-10T18:02:44.000000Z</property>
    <property name="meta.attr.1.stream.handler_name.markup">Core Media Video</property>
    <property name="meta.attr.1.stream.vendor_id.markup">[0][0][0][0]</property>
    <property name="meta.attr.major_brand.markup">mp42</property>
    <property name="meta.attr.minor_version.markup">1</property>
    <property name="meta.attr.compatible_brands.markup">isommp41mp42</property>
    <property name="meta.attr.creation_time.markup">2024-06-10T18:02:44.000000Z</property>
    <property name="seekable">1</property>
    <property name="meta.media.sample_aspect_num">1</property>
    <property name="meta.media.sample_aspect_den">1</property>
    <property name="audio_index">0</property>
    <property name="video_index">1</property>
    <property name="creation_time">2024-06-10T18:02:44</property>
    <property name="vstream">0</property>
    <property name="meta.media.frame_rate_num">30</property>
    <property name="meta.media.frame_rate_den">1</property>
    <property name="meta.media.colorspace">709</property>
    <property name="meta.media.color_trc">1</property>
    <property name="meta.media.has_b_frames">1</property>
    <property name="meta.media.width">720</property>
    <property name="meta.media.height">1280</property>
    <property name="meta.media.color_range">mpeg</property>
    <property name="astream">0</property>
    <property name="shotcut:skipConvert">1</property>
    <property name="xml">was here</property>
    <property name="shotcut:hash">d54f85269f67bef19a10062bd166376b</property>
  </chain>
  <chain id="chain8" out="00:00:02.733">
    <property name="length">00:00:02.767</property>
    <property name="eof">pause</property>
    <property name="resource">C:/Users/Lenovo-pc/Downloads/IMG_3434.MOV</property>
    <property name="mlt_service">avformat-novalidate</property>
    <property name="meta.media.nb_streams">2</property>
    <property name="meta.media.0.stream.type">audio</property>
    <property name="meta.media.0.codec.sample_fmt">fltp</property>
    <property name="meta.media.0.codec.sample_rate">44100</property>
    <property name="meta.media.0.codec.channels">2</property>
    <property name="meta.media.0.codec.layout">stereo</property>
    <property name="meta.media.0.codec.name">aac</property>
    <property name="meta.media.0.codec.long_name">AAC (Advanced Audio Coding)</property>
    <property name="meta.media.0.codec.bit_rate">141794</property>
    <property name="meta.attr.0.stream.creation_time.markup">2024-06-10T18:02:41.000000Z</property>
    <property name="meta.attr.0.stream.handler_name.markup">Core Media Audio</property>
    <property name="meta.attr.0.stream.vendor_id.markup">[0][0][0][0]</property>
    <property name="meta.media.1.stream.type">video</property>
    <property name="meta.media.1.stream.frame_rate">30</property>
    <property name="meta.media.1.stream.sample_aspect_ratio">0</property>
    <property name="meta.media.1.codec.width">1280</property>
    <property name="meta.media.1.codec.height">720</property>
    <property name="meta.media.1.codec.rotate">90</property>
    <property name="meta.media.1.codec.pix_fmt">yuv420p</property>
    <property name="meta.media.1.codec.sample_aspect_ratio">0</property>
    <property name="meta.media.1.codec.colorspace">709</property>
    <property name="meta.media.1.codec.color_trc">1</property>
    <property name="meta.media.1.codec.name">h264</property>
    <property name="meta.media.1.codec.long_name">H.264 / AVC / MPEG-4 AVC / MPEG-4 part 10</property>
    <property name="meta.media.1.codec.bit_rate">2449839</property>
    <property name="meta.attr.1.stream.creation_time.markup">2024-06-10T18:02:41.000000Z</property>
    <property name="meta.attr.1.stream.handler_name.markup">Core Media Video</property>
    <property name="meta.attr.1.stream.vendor_id.markup">[0][0][0][0]</property>
    <property name="meta.attr.major_brand.markup">mp42</property>
    <property name="meta.attr.minor_version.markup">1</property>
    <property name="meta.attr.compatible_brands.markup">isommp41mp42</property>
    <property name="meta.attr.creation_time.markup">2024-06-10T18:02:41.000000Z</property>
    <property name="seekable">1</property>
    <property name="meta.media.sample_aspect_num">1</property>
    <property name="meta.media.sample_aspect_den">1</property>
    <property name="audio_index">0</property>
    <property name="video_index">1</property>
    <property name="creation_time">2024-06-10T18:02:41</property>
    <property name="vstream">0</property>
    <property name="meta.media.frame_rate_num">30</property>
    <property name="meta.media.frame_rate_den">1</property>
    <property name="meta.media.colorspace">709</property>
    <property name="meta.media.color_trc">1</property>
    <property name="meta.media.has_b_frames">1</property>
    <property name="meta.media.width">720</property>
    <property name="meta.media.height">1280</property>
    <property name="meta.media.color_range">mpeg</property>
    <property name="astream">0</property>
    <property name="shotcut:skipConvert">1</property>
    <property name="xml">was here</property>
    <property name="shotcut:hash">33e463d7dfd0976e8602b2fe3837a64d</property>
    <property name="meta.media.top_field_first">0</property>
    <property name="meta.media.progressive">1</property>
    <property name="ignore_points">1</property>
    <property name="shotcut:caption">IMG_3434.MOV</property>
  </chain>
  <chain id="chain9" out="00:00:01.400">
    <property name="length">00:00:01.567</property>
    <property name="eof">pause</property>
    <property name="resource">C:/Users/Lenovo-pc/Downloads/IMG_3393.MOV</property>
    <property name="mlt_service">avformat-novalidate</property>
    <property name="meta.media.nb_streams">2</property>
    <property name="meta.media.0.stream.type">audio</property>
    <property name="meta.media.0.codec.sample_fmt">fltp</property>
    <property name="meta.media.0.codec.sample_rate">44100</property>
    <property name="meta.media.0.codec.channels">2</property>
    <property name="meta.media.0.codec.layout">stereo</property>
    <property name="meta.media.0.codec.name">aac</property>
    <property name="meta.media.0.codec.long_name">AAC (Advanced Audio Coding)</property>
    <property name="meta.media.0.codec.bit_rate">181075</property>
    <property name="meta.attr.0.stream.creation_time.markup">2024-06-10T13:37:32.000000Z</property>
    <property name="meta.attr.0.stream.handler_name.markup">Core Media Audio</property>
    <property name="meta.attr.0.stream.vendor_id.markup">[0][0][0][0]</property>
    <property name="meta.media.1.stream.type">video</property>
    <property name="meta.media.1.stream.frame_rate">30</property>
    <property name="meta.media.1.stream.sample_aspect_ratio">0</property>
    <property name="meta.media.1.codec.width">1280</property>
    <property name="meta.media.1.codec.height">720</property>
    <property name="meta.media.1.codec.rotate">90</property>
    <property name="meta.media.1.codec.pix_fmt">yuv420p</property>
    <property name="meta.media.1.codec.sample_aspect_ratio">0</property>
    <property name="meta.media.1.codec.colorspace">709</property>
    <property name="meta.media.1.codec.color_trc">1</property>
    <property name="meta.media.1.codec.name">h264</property>
    <property name="meta.media.1.codec.long_name">H.264 / AVC / MPEG-4 AVC / MPEG-4 part 10</property>
    <property name="meta.media.1.codec.bit_rate">665724</property>
    <property name="meta.attr.1.stream.creation_time.markup">2024-06-10T13:37:32.000000Z</property>
    <property name="meta.attr.1.stream.handler_name.markup">Core Media Video</property>
    <property name="meta.attr.1.stream.vendor_id.markup">[0][0][0][0]</property>
    <property name="meta.attr.major_brand.markup">mp42</property>
    <property name="meta.attr.minor_version.markup">1</property>
    <property name="meta.attr.compatible_brands.markup">isommp41mp42</property>
    <property name="meta.attr.creation_time.markup">2024-06-10T13:37:32.000000Z</property>
    <property name="seekable">1</property>
    <property name="meta.media.sample_aspect_num">1</property>
    <property name="meta.media.sample_aspect_den">1</property>
    <property name="audio_index">0</property>
    <property name="video_index">1</property>
    <property name="creation_time">2024-06-10T13:37:32</property>
    <property name="vstream">0</property>
    <property name="meta.media.frame_rate_num">30</property>
    <property name="meta.media.frame_rate_den">1</property>
    <property name="meta.media.colorspace">709</property>
    <property name="meta.media.color_trc">1</property>
    <property name="meta.media.has_b_frames">1</property>
    <property name="meta.media.width">720</property>
    <property name="meta.media.height">1280</property>
    <property name="meta.media.color_range">mpeg</property>
    <property name="astream">0</property>
    <property name="shotcut:skipConvert">1</property>
    <property name="xml">was here</property>
    <property name="shotcut:hash">51167b41c8d18427ded099ca685a384c</property>
    <property name="meta.media.top_field_first">0</property>
    <property name="meta.media.progressive">1</property>
    <property name="ignore_points">1</property>
    <property name="shotcut:caption">IMG_3393.MOV</property>
  </chain>
  <chain id="chain10" out="00:00:02.500">
    <property name="length">00:00:04.567</property>
    <property name="eof">pause</property>
    <property name="resource">C:/Users/Lenovo-pc/Downloads/IMG_3390.MOV</property>
    <property name="mlt_service">avformat-novalidate</property>
    <property name="meta.media.nb_streams">2</property>
    <property name="meta.media.0.stream.type">audio</property>
    <property name="meta.media.0.codec.sample_fmt">fltp</property>
    <property name="meta.media.0.codec.sample_rate">44100</property>
    <property name="meta.media.0.codec.channels">2</property>
    <property name="meta.media.0.codec.layout">stereo</property>
    <property name="meta.media.0.codec.name">aac</property>
    <property name="meta.media.0.codec.long_name">AAC (Advanced Audio Coding)</property>
    <property name="meta.media.0.codec.bit_rate">198264</property>
    <property name="meta.attr.0.stream.creation_time.markup">2024-06-10T13:37:25.000000Z</property>
    <property name="meta.attr.0.stream.handler_name.markup">Core Media Audio</property>
    <property name="meta.attr.0.stream.vendor_id.markup">[0][0][0][0]</property>
    <property name="meta.media.1.stream.type">video</property>
    <property name="meta.media.1.stream.frame_rate">30</property>
    <property name="meta.media.1.stream.sample_aspect_ratio">0</property>
    <property name="meta.media.1.codec.width">1280</property>
    <property name="meta.media.1.codec.height">720</property>
    <property name="meta.media.1.codec.rotate">90</property>
    <property name="meta.media.1.codec.pix_fmt">yuv420p</property>
    <property name="meta.media.1.codec.sample_aspect_ratio">0</property>
    <property name="meta.media.1.codec.colorspace">709</property>
    <property name="meta.media.1.codec.color_trc">1</property>
    <property name="meta.media.1.codec.name">h264</property>
    <property name="meta.media.1.codec.long_name">H.264 / AVC / MPEG-4 AVC / MPEG-4 part 10</property>
    <property name="meta.media.1.codec.bit_rate">2110374</property>
    <property name="meta.attr.1.stream.creation_time.markup">2024-06-10T13:37:25.000000Z</property>
    <property name="meta.attr.1.stream.handler_name.markup">Core Media Video</property>
    <property name="meta.attr.1.stream.vendor_id.markup">[0][0][0][0]</property>
    <property name="meta.attr.major_brand.markup">mp42</property>
    <property name="meta.attr.minor_version.markup">1</property>
    <property name="meta.attr.compatible_brands.markup">isommp41mp42</property>
    <property name="meta.attr.creation_time.markup">2024-06-10T13:37:25.000000Z</property>
    <property name="seekable">1</property>
    <property name="meta.media.sample_aspect_num">1</property>
    <property name="meta.media.sample_aspect_den">1</property>
    <property name="audio_index">0</property>
    <property name="video_index">1</property>
    <property name="creation_time">2024-06-10T13:37:25</property>
    <property name="vstream">0</property>
    <property name="meta.media.frame_rate_num">30</property>
    <property name="meta.media.frame_rate_den">1</property>
    <property name="meta.media.colorspace">709</property>
    <property name="meta.media.color_trc">1</property>
    <property name="meta.media.has_b_frames">1</property>
    <property name="meta.media.width">720</property>
    <property name="meta.media.height">1280</property>
    <property name="meta.media.color_range">mpeg</property>
    <property name="astream">0</property>
    <property name="shotcut:skipConvert">1</property>
    <property name="xml">was here</property>
    <property name="shotcut:hash">2fad4d42a0dbe54d4ca4a41f5cb21b20</property>
    <property name="meta.media.top_field_first">0</property>
    <property name="meta.media.progressive">1</property>
    <property name="ignore_points">1</property>
    <property name="shotcut:caption">IMG_3390.MOV</property>
  </chain>
  <chain id="chain11" out="00:00:01.267">
    <property name="length">00:00:01.300</property>
    <property name="eof">pause</property>
    <property name="resource">C:/Users/Lenovo-pc/Downloads/IMG_3389.MOV</property>
    <property name="mlt_service">avformat-novalidate</property>
    <property name="meta.media.nb_streams">2</property>
    <property name="meta.media.0.stream.type">audio</property>
    <property name="meta.media.0.codec.sample_fmt">fltp</property>
    <property name="meta.media.0.codec.sample_rate">44100</property>
    <property name="meta.media.0.codec.channels">2</property>
    <property name="meta.media.0.codec.layout">stereo</property>
    <property name="meta.media.0.codec.name">aac</property>
    <property name="meta.media.0.codec.long_name">AAC (Advanced Audio Coding)</property>
    <property name="meta.media.0.codec.bit_rate">191933</property>
    <property name="meta.attr.0.stream.creation_time.markup">2024-06-10T13:37:19.000000Z</property>
    <property name="meta.attr.0.stream.handler_name.markup">Core Media Audio</property>
    <property name="meta.attr.0.stream.vendor_id.markup">[0][0][0][0]</property>
    <property name="meta.media.1.stream.type">video</property>
    <property name="meta.media.1.stream.frame_rate">30.0385</property>
    <property name="meta.media.1.stream.sample_aspect_ratio">0</property>
    <property name="meta.media.1.codec.width">1280</property>
    <property name="meta.media.1.codec.height">720</property>
    <property name="meta.media.1.codec.rotate">90</property>
    <property name="meta.media.1.codec.pix_fmt">yuv420p</property>
    <property name="meta.media.1.codec.sample_aspect_ratio">0</property>
    <property name="meta.media.1.codec.colorspace">709</property>
    <property name="meta.media.1.codec.color_trc">1</property>
    <property name="meta.media.1.codec.name">h264</property>
    <property name="meta.media.1.codec.long_name">H.264 / AVC / MPEG-4 AVC / MPEG-4 part 10</property>
    <property name="meta.media.1.codec.bit_rate">1987588</property>
    <property name="meta.attr.1.stream.creation_time.markup">2024-06-10T13:37:19.000000Z</property>
    <property name="meta.attr.1.stream.handler_name.markup">Core Media Video</property>
    <property name="meta.attr.1.stream.vendor_id.markup">[0][0][0][0]</property>
    <property name="meta.attr.major_brand.markup">mp42</property>
    <property name="meta.attr.minor_version.markup">1</property>
    <property name="meta.attr.compatible_brands.markup">isommp41mp42</property>
    <property name="meta.attr.creation_time.markup">2024-06-10T13:37:19.000000Z</property>
    <property name="seekable">1</property>
    <property name="meta.media.sample_aspect_num">1</property>
    <property name="meta.media.sample_aspect_den">1</property>
    <property name="audio_index">0</property>
    <property name="video_index">1</property>
    <property name="creation_time">2024-06-10T13:37:19</property>
    <property name="vstream">0</property>
    <property name="meta.media.frame_rate_num">23400</property>
    <property name="meta.media.frame_rate_den">779</property>
    <property name="meta.media.colorspace">709</property>
    <property name="meta.media.color_trc">1</property>
    <property name="meta.media.has_b_frames">1</property>
    <property name="meta.media.width">720</property>
    <property name="meta.media.height">1280</property>
    <property name="meta.media.color_range">mpeg</property>
    <property name="astream">0</property>
    <property name="shotcut:skipConvert">1</property>
    <property name="xml">was here</property>
    <property name="shotcut:hash">454a8b0586f17e98fee753029aca8a7a</property>
    <property name="meta.media.top_field_first">0</property>
    <property name="meta.media.progressive">1</property>
    <property name="ignore_points">1</property>
    <property name="shotcut:caption">IMG_3389.MOV</property>
  </chain>
  <chain id="chain12" out="00:00:01.500">
    <property name="length">00:00:02.267</property>
    <property name="eof">pause</property>
    <property name="resource">C:/Users/Lenovo-pc/Downloads/IMG_3384.MOV</property>
    <property name="mlt_service">avformat-novalidate</property>
    <property name="meta.media.nb_streams">2</property>
    <property name="meta.media.0.stream.type">audio</property>
    <property name="meta.media.0.codec.sample_fmt">fltp</property>
    <property name="meta.media.0.codec.sample_rate">44100</property>
    <property name="meta.media.0.codec.channels">2</property>
    <property name="meta.media.0.codec.layout">stereo</property>
    <property name="meta.media.0.codec.name">aac</property>
    <property name="meta.media.0.codec.long_name">AAC (Advanced Audio Coding)</property>
    <property name="meta.media.0.codec.bit_rate">178077</property>
    <property name="meta.attr.0.stream.creation_time.markup">2024-06-10T13:37:12.000000Z</property>
    <property name="meta.attr.0.stream.handler_name.markup">Core Media Audio</property>
    <property name="meta.attr.0.stream.vendor_id.markup">[0][0][0][0]</property>
    <property name="meta.media.1.stream.type">video</property>
    <property name="meta.media.1.stream.frame_rate">30.0221</property>
    <property name="meta.media.1.stream.sample_aspect_ratio">0</property>
    <property name="meta.media.1.codec.width">1280</property>
    <property name="meta.media.1.codec.height">720</property>
    <property name="meta.media.1.codec.rotate">90</property>
    <property name="meta.media.1.codec.pix_fmt">yuv420p</property>
    <property name="meta.media.1.codec.sample_aspect_ratio">0</property>
    <property name="meta.media.1.codec.colorspace">709</property>
    <property name="meta.media.1.codec.color_trc">1</property>
    <property name="meta.media.1.codec.name">h264</property>
    <property name="meta.media.1.codec.long_name">H.264 / AVC / MPEG-4 AVC / MPEG-4 part 10</property>
    <property name="meta.media.1.codec.bit_rate">1196874</property>
    <property name="meta.attr.1.stream.creation_time.markup">2024-06-10T13:37:12.000000Z</property>
    <property name="meta.attr.1.stream.handler_name.markup">Core Media Video</property>
    <property name="meta.attr.1.stream.vendor_id.markup">[0][0][0][0]</property>
    <property name="meta.attr.major_brand.markup">mp42</property>
    <property name="meta.attr.minor_version.markup">1</property>
    <property name="meta.attr.compatible_brands.markup">isommp41mp42</property>
    <property name="meta.attr.creation_time.markup">2024-06-10T13:37:12.000000Z</property>
    <property name="seekable">1</property>
    <property name="meta.media.sample_aspect_num">1</property>
    <property name="meta.media.sample_aspect_den">1</property>
    <property name="audio_index">0</property>
    <property name="video_index">1</property>
    <property name="creation_time">2024-06-10T13:37:12</property>
    <property name="vstream">0</property>
    <property name="meta.media.frame_rate_num">13600</property>
    <property name="meta.media.frame_rate_den">453</property>
    <property name="meta.media.colorspace">709</property>
    <property name="meta.media.color_trc">1</property>
    <property name="meta.media.has_b_frames">1</property>
    <property name="meta.media.width">720</property>
    <property name="meta.media.height">1280</property>
    <property name="meta.media.color_range">mpeg</property>
    <property name="astream">0</property>
    <property name="shotcut:skipConvert">1</property>
    <property name="xml">was here</property>
    <property name="shotcut:hash">adbc108d8adf9f7434311602b987f30e</property>
    <property name="meta.media.top_field_first">0</property>
    <property name="meta.media.progressive">1</property>
    <property name="ignore_points">1</property>
    <property name="shotcut:caption">IMG_3384.MOV</property>
  </chain>
  <chain id="chain13" out="00:00:01.500">
    <property name="length">00:00:01.533</property>
    <property name="eof">pause</property>
    <property name="resource">C:/Users/Lenovo-pc/Downloads/IMG_3382.MOV</property>
    <property name="mlt_service">avformat-novalidate</property>
    <property name="meta.media.nb_streams">2</property>
    <property name="meta.media.0.stream.type">audio</property>
    <property name="meta.media.0.codec.sample_fmt">fltp</property>
    <property name="meta.media.0.codec.sample_rate">44100</property>
    <property name="meta.media.0.codec.channels">2</property>
    <property name="meta.media.0.codec.layout">stereo</property>
    <property name="meta.media.0.codec.name">aac</property>
    <property name="meta.media.0.codec.long_name">AAC (Advanced Audio Coding)</property>
    <property name="meta.media.0.codec.bit_rate">160062</property>
    <property name="meta.attr.0.stream.creation_time.markup">2024-06-10T13:37:02.000000Z</property>
    <property name="meta.attr.0.stream.handler_name.markup">Core Media Audio</property>
    <property name="meta.attr.0.stream.vendor_id.markup">[0][0][0][0]</property>
    <property name="meta.media.1.stream.type">video</property>
    <property name="meta.media.1.stream.frame_rate">30</property>
    <property name="meta.media.1.stream.sample_aspect_ratio">0</property>
    <property name="meta.media.1.codec.width">1280</property>
    <property name="meta.media.1.codec.height">720</property>
    <property name="meta.media.1.codec.rotate">90</property>
    <property name="meta.media.1.codec.pix_fmt">yuv420p</property>
    <property name="meta.media.1.codec.sample_aspect_ratio">0</property>
    <property name="meta.media.1.codec.colorspace">709</property>
    <property name="meta.media.1.codec.color_trc">1</property>
    <property name="meta.media.1.codec.name">h264</property>
    <property name="meta.media.1.codec.long_name">H.264 / AVC / MPEG-4 AVC / MPEG-4 part 10</property>
    <property name="meta.media.1.codec.bit_rate">1191506</property>
    <property name="meta.attr.1.stream.creation_time.markup">2024-06-10T13:37:02.000000Z</property>
    <property name="meta.attr.1.stream.handler_name.markup">Core Media Video</property>
    <property name="meta.attr.1.stream.vendor_id.markup">[0][0][0][0]</property>
    <property name="meta.attr.major_brand.markup">mp42</property>
    <property name="meta.attr.minor_version.markup">1</property>
    <property name="meta.attr.compatible_brands.markup">isommp41mp42</property>
    <property name="meta.attr.creation_time.markup">2024-06-10T13:37:02.000000Z</property>
    <property name="seekable">1</property>
    <property name="meta.media.sample_aspect_num">1</property>
    <property name="meta.media.sample_aspect_den">1</property>
    <property name="audio_index">0</property>
    <property name="video_index">1</property>
    <property name="creation_time">2024-06-10T13:37:02</property>
    <property name="vstream">0</property>
    <property name="meta.media.frame_rate_num">30</property>
    <property name="meta.media.frame_rate_den">1</property>
    <property name="meta.media.colorspace">709</property>
    <property name="meta.media.color_trc">1</property>
    <property name="meta.media.has_b_frames">1</property>
    <property name="meta.media.width">720</property>
    <property name="meta.media.height">1280</property>
    <property name="meta.media.color_range">mpeg</property>
    <property name="astream">0</property>
    <property name="shotcut:skipConvert">1</property>
    <property name="xml">was here</property>
    <property name="shotcut:hash">b9f895016481dd884dc21e4a971c122c</property>
    <property name="meta.media.top_field_first">0</property>
    <property name="meta.media.progressive">1</property>
    <property name="ignore_points">1</property>
    <property name="shotcut:caption">IMG_3382.MOV</property>
  </chain>
  <chain id="chain14" in="00:00:00.733" out="00:00:04.800">
    <property name="length">00:00:05.467</property>
    <property name="eof">pause</property>
    <property name="resource">C:/Users/Lenovo-pc/Downloads/IMG_3431.MOV</property>
    <property name="mlt_service">avformat-novalidate</property>
    <property name="meta.media.nb_streams">2</property>
    <property name="meta.media.0.stream.type">audio</property>
    <property name="meta.media.0.codec.sample_fmt">fltp</property>
    <property name="meta.media.0.codec.sample_rate">44100</property>
    <property name="meta.media.0.codec.channels">2</property>
    <property name="meta.media.0.codec.layout">stereo</property>
    <property name="meta.media.0.codec.name">aac</property>
    <property name="meta.media.0.codec.long_name">AAC (Advanced Audio Coding)</property>
    <property name="meta.media.0.codec.bit_rate">170970</property>
    <property name="meta.attr.0.stream.creation_time.markup">2024-06-10T17:00:26.000000Z</property>
    <property name="meta.attr.0.stream.handler_name.markup">Core Media Audio</property>
    <property name="meta.attr.0.stream.vendor_id.markup">[0][0][0][0]</property>
    <property name="meta.media.1.stream.type">video</property>
    <property name="meta.media.1.stream.frame_rate">30</property>
    <property name="meta.media.1.stream.sample_aspect_ratio">0</property>
    <property name="meta.media.1.codec.width">1280</property>
    <property name="meta.media.1.codec.height">720</property>
    <property name="meta.media.1.codec.rotate">180</property>
    <property name="meta.media.1.codec.pix_fmt">yuv420p</property>
    <property name="meta.media.1.codec.sample_aspect_ratio">0</property>
    <property name="meta.media.1.codec.colorspace">709</property>
    <property name="meta.media.1.codec.color_trc">1</property>
    <property name="meta.media.1.codec.name">h264</property>
    <property name="meta.media.1.codec.long_name">H.264 / AVC / MPEG-4 AVC / MPEG-4 part 10</property>
    <property name="meta.media.1.codec.bit_rate">2487147</property>
    <property name="meta.attr.1.stream.creation_time.markup">2024-06-10T17:00:26.000000Z</property>
    <property name="meta.attr.1.stream.handler_name.markup">Core Media Video</property>
    <property name="meta.attr.1.stream.vendor_id.markup">[0][0][0][0]</property>
    <property name="meta.attr.major_brand.markup">mp42</property>
    <property name="meta.attr.minor_version.markup">1</property>
    <property name="meta.attr.compatible_brands.markup">isommp41mp42</property>
    <property name="meta.attr.creation_time.markup">2024-06-10T17:00:26.000000Z</property>
    <property name="seekable">1</property>
    <property name="meta.media.sample_aspect_num">1</property>
    <property name="meta.media.sample_aspect_den">1</property>
    <property name="audio_index">0</property>
    <property name="video_index">1</property>
    <property name="creation_time">2024-06-10T17:00:26</property>
    <property name="vstream">0</property>
    <property name="meta.media.frame_rate_num">30</property>
    <property name="meta.media.frame_rate_den">1</property>
    <property name="meta.media.colorspace">709</property>
    <property name="meta.media.color_trc">1</property>
    <property name="meta.media.has_b_frames">1</property>
    <property name="meta.media.width">1280</property>
    <property name="meta.media.height">720</property>
    <property name="meta.media.aspect_ratio">1</property>
    <property name="meta.media.color_range">mpeg</property>
    <property name="astream">0</property>
    <property name="shotcut:skipConvert">1</property>
    <property name="xml">was here</property>
    <property name="shotcut:hash">92239bad8d90f75e91e2ab8a77b83da5</property>
    <property name="meta.media.top_field_first">0</property>
    <property name="meta.media.progressive">1</property>
    <property name="ignore_points">1</property>
    <property name="shotcut:caption">IMG_3431.MOV</property>
  </chain>
  <chain id="chain15" out="00:00:01.533">
    <property name="length">00:00:01.567</property>
    <property name="eof">pause</property>
    <property name="resource">C:/Users/Lenovo-pc/Downloads/IMG_3396.MOV</property>
    <property name="mlt_service">avformat-novalidate</property>
    <property name="meta.media.nb_streams">2</property>
    <property name="meta.media.0.stream.type">audio</property>
    <property name="meta.media.0.codec.sample_fmt">fltp</property>
    <property name="meta.media.0.codec.sample_rate">44100</property>
    <property name="meta.media.0.codec.channels">2</property>
    <property name="meta.media.0.codec.layout">stereo</property>
    <property name="meta.media.0.codec.name">aac</property>
    <property name="meta.media.0.codec.long_name">AAC (Advanced Audio Coding)</property>
    <property name="meta.media.0.codec.bit_rate">178491</property>
    <property name="meta.attr.0.stream.creation_time.markup">2024-06-10T13:37:40.000000Z</property>
    <property name="meta.attr.0.stream.handler_name.markup">Core Media Audio</property>
    <property name="meta.attr.0.stream.vendor_id.markup">[0][0][0][0]</property>
    <property name="meta.media.1.stream.type">video</property>
    <property name="meta.media.1.stream.frame_rate">30.0319</property>
    <property name="meta.media.1.stream.sample_aspect_ratio">0</property>
    <property name="meta.media.1.codec.width">1280</property>
    <property name="meta.media.1.codec.height">720</property>
    <property name="meta.media.1.codec.rotate">90</property>
    <property name="meta.media.1.codec.pix_fmt">yuv420p</property>
    <property name="meta.media.1.codec.sample_aspect_ratio">0</property>
    <property name="meta.media.1.codec.colorspace">709</property>
    <property name="meta.media.1.codec.color_trc">1</property>
    <property name="meta.media.1.codec.name">h264</property>
    <property name="meta.media.1.codec.long_name">H.264 / AVC / MPEG-4 AVC / MPEG-4 part 10</property>
    <property name="meta.media.1.codec.bit_rate">589132</property>
    <property name="meta.attr.1.stream.creation_time.markup">2024-06-10T13:37:40.000000Z</property>
    <property name="meta.attr.1.stream.handler_name.markup">Core Media Video</property>
    <property name="meta.attr.1.stream.vendor_id.markup">[0][0][0][0]</property>
    <property name="meta.attr.major_brand.markup">mp42</property>
    <property name="meta.attr.minor_version.markup">1</property>
    <property name="meta.attr.compatible_brands.markup">isommp41mp42</property>
    <property name="meta.attr.creation_time.markup">2024-06-10T13:37:40.000000Z</property>
    <property name="seekable">1</property>
    <property name="meta.media.sample_aspect_num">1</property>
    <property name="meta.media.sample_aspect_den">1</property>
    <property name="audio_index">0</property>
    <property name="video_index">1</property>
    <property name="creation_time">2024-06-10T13:37:40</property>
    <property name="vstream">0</property>
    <property name="meta.media.frame_rate_num">9400</property>
    <property name="meta.media.frame_rate_den">313</property>
    <property name="meta.media.colorspace">709</property>
    <property name="meta.media.color_trc">1</property>
    <property name="meta.media.has_b_frames">1</property>
    <property name="meta.media.width">720</property>
    <property name="meta.media.height">1280</property>
    <property name="meta.media.color_range">mpeg</property>
    <property name="astream">0</property>
    <property name="shotcut:skipConvert">1</property>
    <property name="xml">was here</property>
    <property name="shotcut:hash">03161f8e737e82425907a4eab3e17c82</property>
    <property name="meta.media.top_field_first">0</property>
    <property name="meta.media.progressive">1</property>
    <property name="ignore_points">1</property>
    <property name="shotcut:caption">IMG_3396.MOV</property>
  </chain>
  <producer id="producer1" in="00:00:00.000" out="00:00:03.967">
    <property name="length">04:00:00.000</property>
    <property name="eof">pause</property>
    <property name="resource">#00000000</property>
    <property name="aspect_ratio">1</property>
    <property name="mlt_service">color</property>
    <property name="mlt_image_format">rgba</property>
    <property name="shotcut:caption">transparent</property>
    <property name="shotcut:detail">transparent</property>
    <property name="ignore_points">1</property>
    <property name="meta.shotcut.vui">1</property>
    <property name="xml">was here</property>
    <property name="seekable">1</property>
    <filter id="filter0" out="00:00:03.967">
      <property name="argument">Anja Vidas - Digitalni multimedij 1</property>
      <property name="geometry">4 12 475 72 1</property>
      <property name="family">Verdana</property>
      <property name="size">64</property>
      <property name="weight">400</property>
      <property name="style">normal</property>
      <property name="fgcolour">#ffffffff</property>
      <property name="bgcolour">#00000000</property>
      <property name="olcolour">#aa000000</property>
      <property name="pad">0</property>
      <property name="halign">center</property>
      <property name="valign">top</property>
      <property name="outline">1</property>
      <property name="opacity">1.0</property>
      <property name="mlt_service">dynamictext</property>
      <property name="shotcut:filter">dynamicText</property>
      <property name="shotcut:usePointSize">1</property>
      <property name="shotcut:pointSize">48</property>
    </filter>
  </producer>
  <producer id="producer2" in="00:00:00.000" out="00:00:03.967">
    <property name="length">04:00:00.000</property>
    <property name="eof">pause</property>
    <property name="resource">#00000000</property>
    <property name="aspect_ratio">1</property>
    <property name="mlt_service">color</property>
    <property name="mlt_image_format">rgba</property>
    <property name="shotcut:caption">transparent</property>
    <property name="shotcut:detail">transparent</property>
    <property name="ignore_points">1</property>
    <property name="meta.shotcut.vui">1</property>
    <property name="xml">was here</property>
    <property name="seekable">1</property>
    <filter id="filter1" out="00:00:03.967">
      <property name="argument">Reklama za čokoladno mlijeko</property>
      <property name="geometry">0 960 720 320 1</property>
      <property name="family">Verdana</property>
      <property name="size">80</property>
      <property name="weight">400</property>
      <property name="style">italic</property>
      <property name="fgcolour">#ffffffff</property>
      <property name="bgcolour">#00000000</property>
      <property name="olcolour">#aa000000</property>
      <property name="pad">0</property>
      <property name="halign">center</property>
      <property name="valign">top</property>
      <property name="outline">3</property>
      <property name="opacity">1.0</property>
      <property name="mlt_service">dynamictext</property>
      <property name="shotcut:filter">dynamicText</property>
      <property name="shotcut:usePointSize">1</property>
      <property name="shotcut:pointSize">60</property>
    </filter>
  </producer>
  <chain id="chain16" out="00:02:31.200">
    <property name="length">00:02:31.200</property>
    <property name="eof">pause</property>
    <property name="resource">C:/Users/Lenovo-pc/Downloads/ROYALTY FREE Inspiring Acoustic Music   Guitar Music Royalty Free  Folk Music Royalty Free.mp3</property>
    <property name="mlt_service">avformat-novalidate</property>
    <property name="meta.media.nb_streams">1</property>
    <property name="meta.media.0.stream.type">audio</property>
    <property name="meta.media.0.codec.sample_fmt">fltp</property>
    <property name="meta.media.0.codec.sample_rate">44100</property>
    <property name="meta.media.0.codec.channels">2</property>
    <property name="meta.media.0.codec.layout">stereo</property>
    <property name="meta.media.0.codec.name">mp3float</property>
    <property name="meta.media.0.codec.long_name">MP3 (MPEG audio layer 3)</property>
    <property name="meta.media.0.codec.bit_rate">128000</property>
    <property name="meta.attr.0.stream.encoder.markup">Lavc58.54</property>
    <property name="meta.attr.major_brand.markup">mp42</property>
    <property name="meta.attr.minor_version.markup">0</property>
    <property name="meta.attr.compatible_brands.markup">isommp42</property>
    <property name="meta.attr.encoder.markup">Lavf58.29.100</property>
    <property name="seekable">1</property>
    <property name="audio_index">0</property>
    <property name="video_index">-1</property>
    <property name="creation_time">2024-06-10T17:49:37</property>
    <property name="astream">0</property>
    <property name="shotcut:skipConvert">1</property>
    <property name="xml">was here</property>
    <property name="shotcut:hash">de08ee2dff753743138117318f09cc97</property>
    <property name="ignore_points">1</property>
    <property name="shotcut:caption">ROYALTY FREE Inspiring Acoustic Music   Guitar Music Royalty Free  Folk Music Royalty Free.mp3</property>
  </chain>
  <playlist id="main_bin" title="Shotcut version 24.04.28">
    <property name="shotcut:projectAudioChannels">2</property>
    <property name="shotcut:projectFolder">1</property>
    <property name="xml_retain">1</property>
    <entry producer="chain0" in="00:00:03.200" out="00:00:05.567"/>
    <entry producer="producer0" in="00:00:00.000" out="00:00:03.967"/>
    <entry producer="chain1" in="00:00:01.967" out="00:00:03.533"/>
    <entry producer="chain2" in="00:00:00.000" out="00:00:02.333"/>
    <entry producer="chain3" in="00:00:00.000" out="00:00:00.700"/>
    <entry producer="chain4" in="00:00:00.000" out="00:00:01.667"/>
    <entry producer="chain5" in="00:00:00.000" out="00:00:01.700"/>
    <entry producer="chain6" in="00:00:00.000" out="00:00:00.933"/>
    <entry producer="chain7" in="00:00:00.000" out="00:00:01.233"/>
    <entry producer="chain8" in="00:00:00.000" out="00:00:02.733"/>
    <entry producer="chain9" in="00:00:00.000" out="00:00:01.400"/>
    <entry producer="chain10" in="00:00:00.000" out="00:00:02.500"/>
    <entry producer="chain11" in="00:00:00.000" out="00:00:01.267"/>
    <entry producer="chain12" in="00:00:00.000" out="00:00:01.500"/>
    <entry producer="chain13" in="00:00:00.000" out="00:00:01.500"/>
    <entry producer="chain14" in="00:00:00.733" out="00:00:04.800"/>
    <entry producer="chain15" in="00:00:00.000" out="00:00:01.533"/>
    <entry producer="producer1" in="00:00:00.000" out="00:00:03.967"/>
    <entry producer="producer2" in="00:00:00.000" out="00:00:03.967"/>
    <entry producer="chain16" in="00:00:00.000" out="00:02:31.167"/>
  </playlist>
  <producer id="black" in="00:00:00.000" out="00:00:31.133">
    <property name="length">00:00:31.167</property>
    <property name="eof">pause</property>
    <property name="resource">0</property>
    <property name="aspect_ratio">1</property>
    <property name="mlt_service">color</property>
    <property name="mlt_image_format">rgba</property>
    <property name="set.test_audio">0</property>
  </producer>
  <playlist id="background">
    <entry producer="black" in="00:00:00.000" out="00:00:31.133"/>
  </playlist>
  <chain id="chain17" out="00:00:08.133">
    <property name="length">00:00:08.167</property>
    <property name="eof">pause</property>
    <property name="resource">C:/Users/Lenovo-pc/Downloads/IMG_3377.MOV</property>
    <property name="mlt_service">avformat-novalidate</property>
    <property name="meta.media.nb_streams">2</property>
    <property name="meta.media.0.stream.type">audio</property>
    <property name="meta.media.0.codec.sample_fmt">fltp</property>
    <property name="meta.media.0.codec.sample_rate">44100</property>
    <property name="meta.media.0.codec.channels">2</property>
    <property name="meta.media.0.codec.layout">stereo</property>
    <property name="meta.media.0.codec.name">aac</property>
    <property name="meta.media.0.codec.long_name">AAC (Advanced Audio Coding)</property>
    <property name="meta.media.0.codec.bit_rate">152180</property>
    <property name="meta.attr.0.stream.creation_time.markup">2024-06-10T13:36:52.000000Z</property>
    <property name="meta.attr.0.stream.handler_name.markup">Core Media Audio</property>
    <property name="meta.attr.0.stream.vendor_id.markup">[0][0][0][0]</property>
    <property name="meta.media.1.stream.type">video</property>
    <property name="meta.media.1.stream.frame_rate">30</property>
    <property name="meta.media.1.stream.sample_aspect_ratio">0</property>
    <property name="meta.media.1.codec.width">1280</property>
    <property name="meta.media.1.codec.height">720</property>
    <property name="meta.media.1.codec.rotate">90</property>
    <property name="meta.media.1.codec.pix_fmt">yuv420p</property>
    <property name="meta.media.1.codec.sample_aspect_ratio">0</property>
    <property name="meta.media.1.codec.colorspace">709</property>
    <property name="meta.media.1.codec.color_trc">1</property>
    <property name="meta.media.1.codec.name">h264</property>
    <property name="meta.media.1.codec.long_name">H.264 / AVC / MPEG-4 AVC / MPEG-4 part 10</property>
    <property name="meta.media.1.codec.bit_rate">2331522</property>
    <property name="meta.attr.1.stream.creation_time.markup">2024-06-10T13:36:52.000000Z</property>
    <property name="meta.attr.1.stream.handler_name.markup">Core Media Video</property>
    <property name="meta.attr.1.stream.vendor_id.markup">[0][0][0][0]</property>
    <property name="meta.attr.major_brand.markup">mp42</property>
    <property name="meta.attr.minor_version.markup">1</property>
    <property name="meta.attr.compatible_brands.markup">isommp41mp42</property>
    <property name="meta.attr.creation_time.markup">2024-06-10T13:36:52.000000Z</property>
    <property name="seekable">1</property>
    <property name="meta.media.sample_aspect_num">1</property>
    <property name="meta.media.sample_aspect_den">1</property>
    <property name="audio_index">-1</property>
    <property name="video_index">1</property>
    <property name="creation_time">2024-06-10T13:36:52</property>
    <property name="vstream">0</property>
    <property name="meta.media.frame_rate_num">30</property>
    <property name="meta.media.frame_rate_den">1</property>
    <property name="meta.media.colorspace">709</property>
    <property name="meta.media.color_trc">1</property>
    <property name="meta.media.has_b_frames">1</property>
    <property name="meta.media.width">720</property>
    <property name="meta.media.height">1280</property>
    <property name="meta.media.color_range">mpeg</property>
    <property name="astream">-1</property>
    <property name="shotcut:skipConvert">1</property>
    <property name="xml">was here</property>
    <property name="shotcut:hash">f60bf6f30490ef698b8ddad38737c443</property>
    <property name="meta.media.top_field_first">0</property>
    <property name="meta.media.progressive">1</property>
    <property name="ignore_points">0</property>
    <property name="shotcut:caption">IMG_3377.MOV</property>
    <property name="shotcut:defaultAudioIndex">0</property>
  </chain>
  <chain id="chain18" out="00:00:02.733">
    <property name="length">00:00:02.767</property>
    <property name="eof">pause</property>
    <property name="resource">C:/Users/Lenovo-pc/Downloads/IMG_3434.MOV</property>
    <property name="mlt_service">avformat-novalidate</property>
    <property name="meta.media.nb_streams">2</property>
    <property name="meta.media.0.stream.type">audio</property>
    <property name="meta.media.0.codec.sample_fmt">fltp</property>
    <property name="meta.media.0.codec.sample_rate">44100</property>
    <property name="meta.media.0.codec.channels">2</property>
    <property name="meta.media.0.codec.layout">stereo</property>
    <property name="meta.media.0.codec.name">aac</property>
    <property name="meta.media.0.codec.long_name">AAC (Advanced Audio Coding)</property>
    <property name="meta.media.0.codec.bit_rate">141794</property>
    <property name="meta.attr.0.stream.creation_time.markup">2024-06-10T18:02:41.000000Z</property>
    <property name="meta.attr.0.stream.handler_name.markup">Core Media Audio</property>
    <property name="meta.attr.0.stream.vendor_id.markup">[0][0][0][0]</property>
    <property name="meta.media.1.stream.type">video</property>
    <property name="meta.media.1.stream.frame_rate">30</property>
    <property name="meta.media.1.stream.sample_aspect_ratio">0</property>
    <property name="meta.media.1.codec.width">1280</property>
    <property name="meta.media.1.codec.height">720</property>
    <property name="meta.media.1.codec.rotate">90</property>
    <property name="meta.media.1.codec.pix_fmt">yuv420p</property>
    <property name="meta.media.1.codec.sample_aspect_ratio">0</property>
    <property name="meta.media.1.codec.colorspace">709</property>
    <property name="meta.media.1.codec.color_trc">1</property>
    <property name="meta.media.1.codec.name">h264</property>
    <property name="meta.media.1.codec.long_name">H.264 / AVC / MPEG-4 AVC / MPEG-4 part 10</property>
    <property name="meta.media.1.codec.bit_rate">2449839</property>
    <property name="meta.attr.1.stream.creation_time.markup">2024-06-10T18:02:41.000000Z</property>
    <property name="meta.attr.1.stream.handler_name.markup">Core Media Video</property>
    <property name="meta.attr.1.stream.vendor_id.markup">[0][0][0][0]</property>
    <property name="meta.attr.major_brand.markup">mp42</property>
    <property name="meta.attr.minor_version.markup">1</property>
    <property name="meta.attr.compatible_brands.markup">isommp41mp42</property>
    <property name="meta.attr.creation_time.markup">2024-06-10T18:02:41.000000Z</property>
    <property name="seekable">1</property>
    <property name="meta.media.sample_aspect_num">1</property>
    <property name="meta.media.sample_aspect_den">1</property>
    <property name="audio_index">-1</property>
    <property name="video_index">1</property>
    <property name="creation_time">2024-06-10T18:02:41</property>
    <property name="vstream">0</property>
    <property name="meta.media.frame_rate_num">30</property>
    <property name="meta.media.frame_rate_den">1</property>
    <property name="meta.media.colorspace">709</property>
    <property name="meta.media.color_trc">1</property>
    <property name="meta.media.has_b_frames">1</property>
    <property name="meta.media.width">720</property>
    <property name="meta.media.height">1280</property>
    <property name="meta.media.color_range">mpeg</property>
    <property name="astream">-1</property>
    <property name="shotcut:skipConvert">1</property>
    <property name="xml">was here</property>
    <property name="shotcut:hash">33e463d7dfd0976e8602b2fe3837a64d</property>
    <property name="meta.media.top_field_first">0</property>
    <property name="meta.media.progressive">1</property>
    <property name="ignore_points">0</property>
    <property name="shotcut:caption">IMG_3434.MOV</property>
    <property name="shotcut:defaultAudioIndex">0</property>
  </chain>
  <chain id="chain19" out="00:00:01.233">
    <property name="length">00:00:01.267</property>
    <property name="eof">pause</property>
    <property name="resource">C:/Users/Lenovo-pc/Downloads/IMG_3435.MOV</property>
    <property name="mlt_service">avformat-novalidate</property>
    <property name="meta.media.nb_streams">2</property>
    <property name="meta.media.0.stream.type">audio</property>
    <property name="meta.media.0.codec.sample_fmt">fltp</property>
    <property name="meta.media.0.codec.sample_rate">44100</property>
    <property name="meta.media.0.codec.channels">2</property>
    <property name="meta.media.0.codec.layout">stereo</property>
    <property name="meta.media.0.codec.name">aac</property>
    <property name="meta.media.0.codec.long_name">AAC (Advanced Audio Coding)</property>
    <property name="meta.media.0.codec.bit_rate">130740</property>
    <property name="meta.attr.0.stream.creation_time.markup">2024-06-10T18:02:44.000000Z</property>
    <property name="meta.attr.0.stream.handler_name.markup">Core Media Audio</property>
    <property name="meta.attr.0.stream.vendor_id.markup">[0][0][0][0]</property>
    <property name="meta.media.1.stream.type">video</property>
    <property name="meta.media.1.stream.frame_rate">30</property>
    <property name="meta.media.1.stream.sample_aspect_ratio">0</property>
    <property name="meta.media.1.codec.width">1280</property>
    <property name="meta.media.1.codec.height">720</property>
    <property name="meta.media.1.codec.rotate">90</property>
    <property name="meta.media.1.codec.pix_fmt">yuv420p</property>
    <property name="meta.media.1.codec.sample_aspect_ratio">0</property>
    <property name="meta.media.1.codec.colorspace">709</property>
    <property name="meta.media.1.codec.color_trc">1</property>
    <property name="meta.media.1.codec.name">h264</property>
    <property name="meta.media.1.codec.long_name">H.264 / AVC / MPEG-4 AVC / MPEG-4 part 10</property>
    <property name="meta.media.1.codec.bit_rate">2475663</property>
    <property name="meta.attr.1.stream.creation_time.markup">2024-06-10T18:02:44.000000Z</property>
    <property name="meta.attr.1.stream.handler_name.markup">Core Media Video</property>
    <property name="meta.attr.1.stream.vendor_id.markup">[0][0][0][0]</property>
    <property name="meta.attr.major_brand.markup">mp42</property>
    <property name="meta.attr.minor_version.markup">1</property>
    <property name="meta.attr.compatible_brands.markup">isommp41mp42</property>
    <property name="meta.attr.creation_time.markup">2024-06-10T18:02:44.000000Z</property>
    <property name="seekable">1</property>
    <property name="meta.media.sample_aspect_num">1</property>
    <property name="meta.media.sample_aspect_den">1</property>
    <property name="audio_index">0</property>
    <property name="video_index">1</property>
    <property name="creation_time">2024-06-10T18:02:44</property>
    <property name="vstream">0</property>
    <property name="meta.media.frame_rate_num">30</property>
    <property name="meta.media.frame_rate_den">1</property>
    <property name="meta.media.colorspace">709</property>
    <property name="meta.media.color_trc">1</property>
    <property name="meta.media.has_b_frames">1</property>
    <property name="meta.media.width">720</property>
    <property name="meta.media.height">1280</property>
    <property name="meta.media.color_range">mpeg</property>
    <property name="astream">0</property>
    <property name="shotcut:skipConvert">1</property>
    <property name="xml">was here</property>
    <property name="shotcut:hash">d54f85269f67bef19a10062bd166376b</property>
    <property name="meta.media.top_field_first">0</property>
    <property name="meta.media.progressive">1</property>
    <property name="shotcut:caption">IMG_3435.MOV</property>
  </chain>
  <chain id="chain20" out="00:00:01.667">
    <property name="length">00:00:01.700</property>
    <property name="eof">pause</property>
    <property name="resource">C:/Users/Lenovo-pc/Downloads/IMG_3416.MOV</property>
    <property name="mlt_service">avformat-novalidate</property>
    <property name="meta.media.nb_streams">2</property>
    <property name="meta.media.0.stream.type">audio</property>
    <property name="meta.media.0.codec.sample_fmt">fltp</property>
    <property name="meta.media.0.codec.sample_rate">44100</property>
    <property name="meta.media.0.codec.channels">2</property>
    <property name="meta.media.0.codec.layout">stereo</property>
    <property name="meta.media.0.codec.name">aac</property>
    <property name="meta.media.0.codec.long_name">AAC (Advanced Audio Coding)</property>
    <property name="meta.media.0.codec.bit_rate">173516</property>
    <property name="meta.attr.0.stream.creation_time.markup">2024-06-10T16:48:24.000000Z</property>
    <property name="meta.attr.0.stream.handler_name.markup">Core Media Audio</property>
    <property name="meta.attr.0.stream.vendor_id.markup">[0][0][0][0]</property>
    <property name="meta.media.1.stream.type">video</property>
    <property name="meta.media.1.stream.frame_rate">30.0294</property>
    <property name="meta.media.1.stream.sample_aspect_ratio">0</property>
    <property name="meta.media.1.codec.width">1280</property>
    <property name="meta.media.1.codec.height">720</property>
    <property name="meta.media.1.codec.rotate">90</property>
    <property name="meta.media.1.codec.pix_fmt">yuv420p</property>
    <property name="meta.media.1.codec.sample_aspect_ratio">0</property>
    <property name="meta.media.1.codec.colorspace">709</property>
    <property name="meta.media.1.codec.color_trc">1</property>
    <property name="meta.media.1.codec.name">h264</property>
    <property name="meta.media.1.codec.long_name">H.264 / AVC / MPEG-4 AVC / MPEG-4 part 10</property>
    <property name="meta.media.1.codec.bit_rate">2375015</property>
    <property name="meta.attr.1.stream.creation_time.markup">2024-06-10T16:48:24.000000Z</property>
    <property name="meta.attr.1.stream.handler_name.markup">Core Media Video</property>
    <property name="meta.attr.1.stream.vendor_id.markup">[0][0][0][0]</property>
    <property name="meta.attr.major_brand.markup">mp42</property>
    <property name="meta.attr.minor_version.markup">1</property>
    <property name="meta.attr.compatible_brands.markup">isommp41mp42</property>
    <property name="meta.attr.creation_time.markup">2024-06-10T16:48:24.000000Z</property>
    <property name="seekable">1</property>
    <property name="meta.media.sample_aspect_num">1</property>
    <property name="meta.media.sample_aspect_den">1</property>
    <property name="audio_index">-1</property>
    <property name="video_index">1</property>
    <property name="creation_time">2024-06-10T16:48:24</property>
    <property name="vstream">0</property>
    <property name="meta.media.frame_rate_num">30600</property>
    <property name="meta.media.frame_rate_den">1019</property>
    <property name="meta.media.colorspace">709</property>
    <property name="meta.media.color_trc">1</property>
    <property name="meta.media.has_b_frames">1</property>
    <property name="meta.media.width">720</property>
    <property name="meta.media.height">1280</property>
    <property name="meta.media.color_range">mpeg</property>
    <property name="astream">-1</property>
    <property name="shotcut:skipConvert">1</property>
    <property name="xml">was here</property>
    <property name="shotcut:hash">b178ec3aa176aa8e5d99f8841baa54bc</property>
    <property name="meta.media.top_field_first">0</property>
    <property name="meta.media.progressive">1</property>
    <property name="ignore_points">0</property>
    <property name="shotcut:caption">IMG_3416.MOV</property>
    <property name="shotcut:defaultAudioIndex">0</property>
  </chain>
  <producer id="producer3" in="00:00:00.000" out="00:00:02.167">
    <property name="length">00:00:02.200</property>
    <property name="eof">pause</property>
    <property name="resource">0.7:C:/Users/Lenovo-pc/Downloads/IMG_3382.MOV</property>
    <property name="aspect_ratio">1</property>
    <property name="meta.media.nb_streams">2</property>
    <property name="meta.media.0.stream.type">audio</property>
    <property name="meta.media.0.codec.sample_fmt">fltp</property>
    <property name="meta.media.0.codec.sample_rate">44100</property>
    <property name="meta.media.0.codec.channels">2</property>
    <property name="meta.media.0.codec.layout">stereo</property>
    <property name="meta.media.0.codec.name">aac</property>
    <property name="meta.media.0.codec.long_name">AAC (Advanced Audio Coding)</property>
    <property name="meta.media.0.codec.bit_rate">160062</property>
    <property name="meta.attr.0.stream.creation_time.markup">2024-06-10T13:37:02.000000Z</property>
    <property name="meta.attr.0.stream.handler_name.markup">Core Media Audio</property>
    <property name="meta.attr.0.stream.vendor_id.markup">[0][0][0][0]</property>
    <property name="meta.media.1.stream.type">video</property>
    <property name="meta.media.1.stream.frame_rate">30</property>
    <property name="meta.media.1.stream.sample_aspect_ratio">0</property>
    <property name="meta.media.1.codec.width">1280</property>
    <property name="meta.media.1.codec.height">720</property>
    <property name="meta.media.1.codec.rotate">90</property>
    <property name="meta.media.1.codec.pix_fmt">yuv420p</property>
    <property name="meta.media.1.codec.sample_aspect_ratio">0</property>
    <property name="meta.media.1.codec.colorspace">709</property>
    <property name="meta.media.1.codec.color_trc">1</property>
    <property name="meta.media.1.codec.name">h264</property>
    <property name="meta.media.1.codec.long_name">H.264 / AVC / MPEG-4 AVC / MPEG-4 part 10</property>
    <property name="meta.media.1.codec.bit_rate">1191506</property>
    <property name="meta.attr.1.stream.creation_time.markup">2024-06-10T13:37:02.000000Z</property>
    <property name="meta.attr.1.stream.handler_name.markup">Core Media Video</property>
    <property name="meta.attr.1.stream.vendor_id.markup">[0][0][0][0]</property>
    <property name="meta.attr.major_brand.markup">mp42</property>
    <property name="meta.attr.minor_version.markup">1</property>
    <property name="meta.attr.compatible_brands.markup">isommp41mp42</property>
    <property name="meta.attr.creation_time.markup">2024-06-10T13:37:02.000000Z</property>
    <property name="seekable">1</property>
    <property name="meta.media.sample_aspect_num">1</property>
    <property name="meta.media.sample_aspect_den">1</property>
    <property name="audio_index">-1</property>
    <property name="video_index">1</property>
    <property name="warp_speed">0.7</property>
    <property name="warp_resource">C:/Users/Lenovo-pc/Downloads/IMG_3382.MOV</property>
    <property name="mlt_service">timewarp</property>
    <property name="shotcut:producer">avformat</property>
    <property name="video_delay">0</property>
    <property name="astream">-1</property>
    <property name="vstream">0</property>
    <property name="shotcut:hash">b9f895016481dd884dc21e4a971c122c</property>
    <property name="shotcut:skipConvert">1</property>
    <property name="shotcut:defaultAudioIndex">0</property>
    <property name="shotcut:caption">IMG_3382.MOV (0.7x)</property>
    <property name="xml">was here</property>
    <property name="meta.media.frame_rate_num">30</property>
    <property name="meta.media.frame_rate_den">1</property>
    <property name="meta.media.colorspace">709</property>
    <property name="meta.media.color_trc">1</property>
    <property name="meta.media.has_b_frames">1</property>
    <property name="meta.media.width">720</property>
    <property name="meta.media.height">1280</property>
    <property name="meta.media.color_range">mpeg</property>
    <property name="meta.media.top_field_first">0</property>
    <property name="meta.media.progressive">1</property>
    <filter id="filter2" out="00:00:02.133">
      <property name="start">1</property>
      <property name="level">1.22</property>
      <property name="mlt_service">brightness</property>
    </filter>
    <filter id="filter3" out="00:00:02.133">
      <property name="version">0.1</property>
      <property name="mlt_service">frei0r.glow</property>
      <property name="0">0.5</property>
    </filter>
  </producer>
  <producer id="producer4" in="00:00:00.000" out="00:00:03.200">
    <property name="length">00:00:03.233</property>
    <property name="eof">pause</property>
    <property name="resource">0.7:C:/Users/Lenovo-pc/Downloads/IMG_3384.MOV</property>
    <property name="aspect_ratio">1</property>
    <property name="meta.media.nb_streams">2</property>
    <property name="meta.media.0.stream.type">audio</property>
    <property name="meta.media.0.codec.sample_fmt">fltp</property>
    <property name="meta.media.0.codec.sample_rate">44100</property>
    <property name="meta.media.0.codec.channels">2</property>
    <property name="meta.media.0.codec.layout">stereo</property>
    <property name="meta.media.0.codec.name">aac</property>
    <property name="meta.media.0.codec.long_name">AAC (Advanced Audio Coding)</property>
    <property name="meta.media.0.codec.bit_rate">178077</property>
    <property name="meta.attr.0.stream.creation_time.markup">2024-06-10T13:37:12.000000Z</property>
    <property name="meta.attr.0.stream.handler_name.markup">Core Media Audio</property>
    <property name="meta.attr.0.stream.vendor_id.markup">[0][0][0][0]</property>
    <property name="meta.media.1.stream.type">video</property>
    <property name="meta.media.1.stream.frame_rate">30.0221</property>
    <property name="meta.media.1.stream.sample_aspect_ratio">0</property>
    <property name="meta.media.1.codec.width">1280</property>
    <property name="meta.media.1.codec.height">720</property>
    <property name="meta.media.1.codec.rotate">90</property>
    <property name="meta.media.1.codec.pix_fmt">yuv420p</property>
    <property name="meta.media.1.codec.sample_aspect_ratio">0</property>
    <property name="meta.media.1.codec.colorspace">709</property>
    <property name="meta.media.1.codec.color_trc">1</property>
    <property name="meta.media.1.codec.name">h264</property>
    <property name="meta.media.1.codec.long_name">H.264 / AVC / MPEG-4 AVC / MPEG-4 part 10</property>
    <property name="meta.media.1.codec.bit_rate">1196874</property>
    <property name="meta.attr.1.stream.creation_time.markup">2024-06-10T13:37:12.000000Z</property>
    <property name="meta.attr.1.stream.handler_name.markup">Core Media Video</property>
    <property name="meta.attr.1.stream.vendor_id.markup">[0][0][0][0]</property>
    <property name="meta.attr.major_brand.markup">mp42</property>
    <property name="meta.attr.minor_version.markup">1</property>
    <property name="meta.attr.compatible_brands.markup">isommp41mp42</property>
    <property name="meta.attr.creation_time.markup">2024-06-10T13:37:12.000000Z</property>
    <property name="seekable">1</property>
    <property name="meta.media.sample_aspect_num">1</property>
    <property name="meta.media.sample_aspect_den">1</property>
    <property name="audio_index">-1</property>
    <property name="video_index">1</property>
    <property name="warp_speed">0.7</property>
    <property name="warp_resource">C:/Users/Lenovo-pc/Downloads/IMG_3384.MOV</property>
    <property name="mlt_service">timewarp</property>
    <property name="shotcut:producer">avformat</property>
    <property name="video_delay">0</property>
    <property name="astream">-1</property>
    <property name="vstream">0</property>
    <property name="shotcut:hash">adbc108d8adf9f7434311602b987f30e</property>
    <property name="shotcut:skipConvert">1</property>
    <property name="shotcut:defaultAudioIndex">0</property>
    <property name="shotcut:caption">IMG_3384.MOV (0.7x)</property>
    <property name="xml">was here</property>
    <property name="meta.media.frame_rate_num">13600</property>
    <property name="meta.media.frame_rate_den">453</property>
    <property name="meta.media.colorspace">709</property>
    <property name="meta.media.color_trc">1</property>
    <property name="meta.media.has_b_frames">1</property>
    <property name="meta.media.width">720</property>
    <property name="meta.media.height">1280</property>
    <property name="meta.media.color_range">mpeg</property>
    <property name="meta.media.top_field_first">0</property>
    <property name="meta.media.progressive">1</property>
    <filter id="filter4" out="00:00:02.133">
      <property name="start">1</property>
      <property name="level">1.52</property>
      <property name="mlt_service">brightness</property>
    </filter>
    <filter id="filter5" out="00:00:02.133">
      <property name="version">0.1</property>
      <property name="mlt_service">frei0r.glow</property>
      <property name="0">0.5</property>
    </filter>
  </producer>
  <chain id="chain21" out="00:00:01.300">
    <property name="length">00:00:01.333</property>
    <property name="eof">pause</property>
    <property name="resource">C:/Users/Lenovo-pc/Downloads/IMG_3389.MOV</property>
    <property name="mlt_service">avformat</property>
    <property name="meta.media.nb_streams">2</property>
    <property name="meta.media.0.stream.type">audio</property>
    <property name="meta.media.0.codec.sample_fmt">fltp</property>
    <property name="meta.media.0.codec.sample_rate">44100</property>
    <property name="meta.media.0.codec.channels">2</property>
    <property name="meta.media.0.codec.layout">stereo</property>
    <property name="meta.media.0.codec.name">aac</property>
    <property name="meta.media.0.codec.long_name">AAC (Advanced Audio Coding)</property>
    <property name="meta.media.0.codec.bit_rate">191933</property>
    <property name="meta.attr.0.stream.creation_time.markup">2024-06-10T13:37:19.000000Z</property>
    <property name="meta.attr.0.stream.handler_name.markup">Core Media Audio</property>
    <property name="meta.attr.0.stream.vendor_id.markup">[0][0][0][0]</property>
    <property name="meta.media.1.stream.type">video</property>
    <property name="meta.media.1.stream.frame_rate">30.0385</property>
    <property name="meta.media.1.stream.sample_aspect_ratio">0</property>
    <property name="meta.media.1.codec.width">1280</property>
    <property name="meta.media.1.codec.height">720</property>
    <property name="meta.media.1.codec.rotate">90</property>
    <property name="meta.media.1.codec.pix_fmt">yuv420p</property>
    <property name="meta.media.1.codec.sample_aspect_ratio">0</property>
    <property name="meta.media.1.codec.colorspace">709</property>
    <property name="meta.media.1.codec.color_trc">1</property>
    <property name="meta.media.1.codec.name">h264</property>
    <property name="meta.media.1.codec.long_name">H.264 / AVC / MPEG-4 AVC / MPEG-4 part 10</property>
    <property name="meta.media.1.codec.bit_rate">1987588</property>
    <property name="meta.attr.1.stream.creation_time.markup">2024-06-10T13:37:19.000000Z</property>
    <property name="meta.attr.1.stream.handler_name.markup">Core Media Video</property>
    <property name="meta.attr.1.stream.vendor_id.markup">[0][0][0][0]</property>
    <property name="meta.attr.major_brand.markup">mp42</property>
    <property name="meta.attr.minor_version.markup">1</property>
    <property name="meta.attr.compatible_brands.markup">isommp41mp42</property>
    <property name="meta.attr.creation_time.markup">2024-06-10T13:37:19.000000Z</property>
    <property name="seekable">1</property>
    <property name="meta.media.sample_aspect_num">1</property>
    <property name="meta.media.sample_aspect_den">1</property>
    <property name="audio_index">-1</property>
    <property name="video_index">1</property>
    <property name="vstream">0</property>
    <property name="meta.media.frame_rate_num">23400</property>
    <property name="meta.media.frame_rate_den">779</property>
    <property name="meta.media.colorspace">709</property>
    <property name="meta.media.color_trc">1</property>
    <property name="meta.media.has_b_frames">1</property>
    <property name="meta.media.width">720</property>
    <property name="meta.media.height">1280</property>
    <property name="meta.media.color_range">mpeg</property>
    <property name="astream">-1</property>
    <property name="video_delay">0</property>
    <property name="shotcut:hash">454a8b0586f17e98fee753029aca8a7a</property>
    <property name="shotcut:skipConvert">1</property>
    <property name="shotcut:defaultAudioIndex">0</property>
    <property name="shotcut:caption">IMG_3389.MOV</property>
    <property name="shotcut:producer">avformat</property>
    <property name="xml">was here</property>
    <property name="meta.media.top_field_first">0</property>
    <property name="meta.media.progressive">1</property>
  </chain>
  <chain id="chain22" out="00:00:01.700">
    <property name="length">00:00:01.733</property>
    <property name="eof">pause</property>
    <property name="resource">C:/Users/Lenovo-pc/Downloads/IMG_3422.MOV</property>
    <property name="mlt_service">avformat-novalidate</property>
    <property name="meta.media.nb_streams">2</property>
    <property name="meta.media.0.stream.type">audio</property>
    <property name="meta.media.0.codec.sample_fmt">fltp</property>
    <property name="meta.media.0.codec.sample_rate">44100</property>
    <property name="meta.media.0.codec.channels">2</property>
    <property name="meta.media.0.codec.layout">stereo</property>
    <property name="meta.media.0.codec.name">aac</property>
    <property name="meta.media.0.codec.long_name">AAC (Advanced Audio Coding)</property>
    <property name="meta.media.0.codec.bit_rate">155303</property>
    <property name="meta.attr.0.stream.creation_time.markup">2024-06-10T16:48:27.000000Z</property>
    <property name="meta.attr.0.stream.handler_name.markup">Core Media Audio</property>
    <property name="meta.attr.0.stream.vendor_id.markup">[0][0][0][0]</property>
    <property name="meta.media.1.stream.type">video</property>
    <property name="meta.media.1.stream.frame_rate">30</property>
    <property name="meta.media.1.stream.sample_aspect_ratio">0</property>
    <property name="meta.media.1.codec.width">1280</property>
    <property name="meta.media.1.codec.height">720</property>
    <property name="meta.media.1.codec.rotate">90</property>
    <property name="meta.media.1.codec.pix_fmt">yuv420p</property>
    <property name="meta.media.1.codec.sample_aspect_ratio">0</property>
    <property name="meta.media.1.codec.colorspace">709</property>
    <property name="meta.media.1.codec.color_trc">1</property>
    <property name="meta.media.1.codec.name">h264</property>
    <property name="meta.media.1.codec.long_name">H.264 / AVC / MPEG-4 AVC / MPEG-4 part 10</property>
    <property name="meta.media.1.codec.bit_rate">907855</property>
    <property name="meta.attr.1.stream.creation_time.markup">2024-06-10T16:48:27.000000Z</property>
    <property name="meta.attr.1.stream.handler_name.markup">Core Media Video</property>
    <property name="meta.attr.1.stream.vendor_id.markup">[0][0][0][0]</property>
    <property name="meta.attr.major_brand.markup">mp42</property>
    <property name="meta.attr.minor_version.markup">1</property>
    <property name="meta.attr.compatible_brands.markup">isommp41mp42</property>
    <property name="meta.attr.creation_time.markup">2024-06-10T16:48:27.000000Z</property>
    <property name="seekable">1</property>
    <property name="meta.media.sample_aspect_num">1</property>
    <property name="meta.media.sample_aspect_den">1</property>
    <property name="audio_index">-1</property>
    <property name="video_index">1</property>
    <property name="creation_time">2024-06-10T16:48:27</property>
    <property name="vstream">0</property>
    <property name="meta.media.frame_rate_num">30</property>
    <property name="meta.media.frame_rate_den">1</property>
    <property name="meta.media.colorspace">709</property>
    <property name="meta.media.color_trc">1</property>
    <property name="meta.media.has_b_frames">1</property>
    <property name="meta.media.width">720</property>
    <property name="meta.media.height">1280</property>
    <property name="meta.media.color_range">mpeg</property>
    <property name="astream">-1</property>
    <property name="shotcut:skipConvert">1</property>
    <property name="xml">was here</property>
    <property name="shotcut:hash">a79ee59c832712103ac9860f8a67aef0</property>
    <property name="meta.media.top_field_first">0</property>
    <property name="meta.media.progressive">1</property>
    <property name="ignore_points">0</property>
    <property name="shotcut:caption">IMG_3422.MOV</property>
    <property name="shotcut:defaultAudioIndex">0</property>
  </chain>
  <producer id="producer5" in="00:00:00.000" out="00:00:03.767">
    <property name="length">00:00:03.800</property>
    <property name="eof">pause</property>
    <property name="resource">1.2:C:/Users/Lenovo-pc/Downloads/IMG_3390.MOV</property>
    <property name="aspect_ratio">1</property>
    <property name="meta.media.nb_streams">2</property>
    <property name="meta.media.0.stream.type">audio</property>
    <property name="meta.media.0.codec.sample_fmt">fltp</property>
    <property name="meta.media.0.codec.sample_rate">44100</property>
    <property name="meta.media.0.codec.channels">2</property>
    <property name="meta.media.0.codec.layout">stereo</property>
    <property name="meta.media.0.codec.name">aac</property>
    <property name="meta.media.0.codec.long_name">AAC (Advanced Audio Coding)</property>
    <property name="meta.media.0.codec.bit_rate">198264</property>
    <property name="meta.attr.0.stream.creation_time.markup">2024-06-10T13:37:25.000000Z</property>
    <property name="meta.attr.0.stream.handler_name.markup">Core Media Audio</property>
    <property name="meta.attr.0.stream.vendor_id.markup">[0][0][0][0]</property>
    <property name="meta.media.1.stream.type">video</property>
    <property name="meta.media.1.stream.frame_rate">30</property>
    <property name="meta.media.1.stream.sample_aspect_ratio">0</property>
    <property name="meta.media.1.codec.width">1280</property>
    <property name="meta.media.1.codec.height">720</property>
    <property name="meta.media.1.codec.rotate">90</property>
    <property name="meta.media.1.codec.pix_fmt">yuv420p</property>
    <property name="meta.media.1.codec.sample_aspect_ratio">0</property>
    <property name="meta.media.1.codec.colorspace">709</property>
    <property name="meta.media.1.codec.color_trc">1</property>
    <property name="meta.media.1.codec.name">h264</property>
    <property name="meta.media.1.codec.long_name">H.264 / AVC / MPEG-4 AVC / MPEG-4 part 10</property>
    <property name="meta.media.1.codec.bit_rate">2110374</property>
    <property name="meta.attr.1.stream.creation_time.markup">2024-06-10T13:37:25.000000Z</property>
    <property name="meta.attr.1.stream.handler_name.markup">Core Media Video</property>
    <property name="meta.attr.1.stream.vendor_id.markup">[0][0][0][0]</property>
    <property name="meta.attr.major_brand.markup">mp42</property>
    <property name="meta.attr.minor_version.markup">1</property>
    <property name="meta.attr.compatible_brands.markup">isommp41mp42</property>
    <property name="meta.attr.creation_time.markup">2024-06-10T13:37:25.000000Z</property>
    <property name="seekable">1</property>
    <property name="meta.media.sample_aspect_num">1</property>
    <property name="meta.media.sample_aspect_den">1</property>
    <property name="audio_index">-1</property>
    <property name="video_index">1</property>
    <property name="warp_speed">1.2</property>
    <property name="warp_resource">C:/Users/Lenovo-pc/Downloads/IMG_3390.MOV</property>
    <property name="mlt_service">timewarp</property>
    <property name="shotcut:producer">avformat</property>
    <property name="video_delay">0</property>
    <property name="astream">-1</property>
    <property name="vstream">0</property>
    <property name="shotcut:hash">2fad4d42a0dbe54d4ca4a41f5cb21b20</property>
    <property name="shotcut:skipConvert">1</property>
    <property name="shotcut:defaultAudioIndex">0</property>
    <property name="shotcut:caption">IMG_3390.MOV (1.2x)</property>
    <property name="xml">was here</property>
    <property name="meta.media.frame_rate_num">30</property>
    <property name="meta.media.frame_rate_den">1</property>
    <property name="meta.media.colorspace">709</property>
    <property name="meta.media.color_trc">1</property>
    <property name="meta.media.has_b_frames">1</property>
    <property name="meta.media.width">720</property>
    <property name="meta.media.height">1280</property>
    <property name="meta.media.color_range">mpeg</property>
    <property name="meta.media.top_field_first">0</property>
    <property name="meta.media.progressive">1</property>
    <filter id="filter6" out="00:00:00.933">
      <property name="version">0.3</property>
      <property name="mlt_service">frei0r.saturat0r</property>
      <property name="threads">0</property>
      <property name="0">0</property>
    </filter>
  </producer>
  <producer id="producer6" in="00:00:00.000" out="00:00:07.567">
    <property name="length">00:00:07.600</property>
    <property name="eof">pause</property>
    <property name="resource">0.6:C:/Users/Lenovo-pc/Downloads/IMG_3390.MOV</property>
    <property name="aspect_ratio">1</property>
    <property name="meta.media.nb_streams">2</property>
    <property name="meta.media.0.stream.type">audio</property>
    <property name="meta.media.0.codec.sample_fmt">fltp</property>
    <property name="meta.media.0.codec.sample_rate">44100</property>
    <property name="meta.media.0.codec.channels">2</property>
    <property name="meta.media.0.codec.layout">stereo</property>
    <property name="meta.media.0.codec.name">aac</property>
    <property name="meta.media.0.codec.long_name">AAC (Advanced Audio Coding)</property>
    <property name="meta.media.0.codec.bit_rate">198264</property>
    <property name="meta.attr.0.stream.creation_time.markup">2024-06-10T13:37:25.000000Z</property>
    <property name="meta.attr.0.stream.handler_name.markup">Core Media Audio</property>
    <property name="meta.attr.0.stream.vendor_id.markup">[0][0][0][0]</property>
    <property name="meta.media.1.stream.type">video</property>
    <property name="meta.media.1.stream.frame_rate">30</property>
    <property name="meta.media.1.stream.sample_aspect_ratio">0</property>
    <property name="meta.media.1.codec.width">1280</property>
    <property name="meta.media.1.codec.height">720</property>
    <property name="meta.media.1.codec.rotate">90</property>
    <property name="meta.media.1.codec.pix_fmt">yuv420p</property>
    <property name="meta.media.1.codec.sample_aspect_ratio">0</property>
    <property name="meta.media.1.codec.colorspace">709</property>
    <property name="meta.media.1.codec.color_trc">1</property>
    <property name="meta.media.1.codec.name">h264</property>
    <property name="meta.media.1.codec.long_name">H.264 / AVC / MPEG-4 AVC / MPEG-4 part 10</property>
    <property name="meta.media.1.codec.bit_rate">2110374</property>
    <property name="meta.attr.1.stream.creation_time.markup">2024-06-10T13:37:25.000000Z</property>
    <property name="meta.attr.1.stream.handler_name.markup">Core Media Video</property>
    <property name="meta.attr.1.stream.vendor_id.markup">[0][0][0][0]</property>
    <property name="meta.attr.major_brand.markup">mp42</property>
    <property name="meta.attr.minor_version.markup">1</property>
    <property name="meta.attr.compatible_brands.markup">isommp41mp42</property>
    <property name="meta.attr.creation_time.markup">2024-06-10T13:37:25.000000Z</property>
    <property name="seekable">1</property>
    <property name="meta.media.sample_aspect_num">1</property>
    <property name="meta.media.sample_aspect_den">1</property>
    <property name="audio_index">-1</property>
    <property name="video_index">1</property>
    <property name="warp_speed">0.6</property>
    <property name="warp_resource">C:/Users/Lenovo-pc/Downloads/IMG_3390.MOV</property>
    <property name="mlt_service">timewarp</property>
    <property name="shotcut:producer">avformat</property>
    <property name="video_delay">0</property>
    <property name="astream">-1</property>
    <property name="vstream">0</property>
    <property name="shotcut:hash">2fad4d42a0dbe54d4ca4a41f5cb21b20</property>
    <property name="shotcut:skipConvert">1</property>
    <property name="shotcut:defaultAudioIndex">0</property>
    <property name="shotcut:caption">IMG_3390.MOV (0.6x)</property>
    <property name="xml">was here</property>
    <property name="meta.media.frame_rate_num">30</property>
    <property name="meta.media.frame_rate_den">1</property>
    <property name="meta.media.colorspace">709</property>
    <property name="meta.media.color_trc">1</property>
    <property name="meta.media.has_b_frames">1</property>
    <property name="meta.media.width">720</property>
    <property name="meta.media.height">1280</property>
    <property name="meta.media.color_range">mpeg</property>
    <property name="meta.media.top_field_first">0</property>
    <property name="meta.media.progressive">1</property>
  </producer>
  <playlist id="playlist0">
    <property name="shotcut:video">1</property>
    <property name="shotcut:name">Video</property>
    <entry producer="chain17" in="00:00:03.200" out="00:00:05.500"/>
    <entry producer="chain18" in="00:00:00.000" out="00:00:02.733"/>
    <entry producer="chain19" in="00:00:00.000" out="00:00:01.233"/>
    <entry producer="chain20" in="00:00:00.000" out="00:00:01.667"/>
    <entry producer="producer3" in="00:00:00.000" out="00:00:02.133"/>
    <entry producer="producer4" in="00:00:00.000" out="00:00:02.133"/>
    <entry producer="chain21" in="00:00:00.000" out="00:00:01.267"/>
    <entry producer="chain22" in="00:00:00.000" out="00:00:01.700"/>
    <entry producer="producer5" in="00:00:00.000" out="00:00:00.933"/>
    <entry producer="producer6" in="00:00:01.933" out="00:00:04.167"/>
  </playlist>
  <chain id="chain23" out="00:02:31.167">
    <property name="length">00:02:31.200</property>
    <property name="eof">pause</property>
    <property name="resource">C:/Users/Lenovo-pc/Downloads/ROYALTY FREE Inspiring Acoustic Music   Guitar Music Royalty Free  Folk Music Royalty Free.mp3</property>
    <property name="mlt_service">avformat-novalidate</property>
    <property name="meta.media.nb_streams">1</property>
    <property name="meta.media.0.stream.type">audio</property>
    <property name="meta.media.0.codec.sample_fmt">fltp</property>
    <property name="meta.media.0.codec.sample_rate">44100</property>
    <property name="meta.media.0.codec.channels">2</property>
    <property name="meta.media.0.codec.layout">stereo</property>
    <property name="meta.media.0.codec.name">mp3float</property>
    <property name="meta.media.0.codec.long_name">MP3 (MPEG audio layer 3)</property>
    <property name="meta.media.0.codec.bit_rate">128000</property>
    <property name="meta.attr.0.stream.encoder.markup">Lavc58.54</property>
    <property name="meta.attr.major_brand.markup">mp42</property>
    <property name="meta.attr.minor_version.markup">0</property>
    <property name="meta.attr.compatible_brands.markup">isommp42</property>
    <property name="meta.attr.encoder.markup">Lavf58.29.100</property>
    <property name="seekable">1</property>
    <property name="audio_index">0</property>
    <property name="video_index">-1</property>
    <property name="creation_time">2024-06-10T17:49:37</property>
    <property name="astream">0</property>
    <property name="shotcut:skipConvert">1</property>
    <property name="xml">was here</property>
    <property name="shotcut:hash">de08ee2dff753743138117318f09cc97</property>
    <property name="ignore_points">0</property>
    <property name="shotcut:caption">ROYALTY FREE Inspiring Acoustic Music   Guitar Music Royalty Free  Folk Music Royalty Free.mp3</property>
    <filter id="filter7" out="00:00:31.100">
      <property name="window">75</property>
      <property name="max_gain">20dB</property>
      <property name="level">00:00:00.000=-60;00:00:00.967=0</property>
      <property name="mlt_service">volume</property>
      <property name="shotcut:filter">fadeInVolume</property>
      <property name="shotcut:animIn">00:00:01.000</property>
    </filter>
    <filter id="filter8" out="00:00:31.100">
      <property name="window">75</property>
      <property name="max_gain">20dB</property>
      <property name="level">00:00:30.133=0;00:00:31.100=-60</property>
      <property name="mlt_service">volume</property>
      <property name="shotcut:filter">fadeOutVolume</property>
      <property name="shotcut:animOut">00:00:01.000</property>
    </filter>
  </chain>
  <playlist id="playlist1">
    <property name="shotcut:audio">1</property>
    <property name="shotcut:name">A1</property>
    <entry producer="chain23" in="00:00:00.000" out="00:00:31.100"/>
  </playlist>
  <producer id="producer7" in="00:00:00.000" out="00:00:05.933">
    <property name="length">00:00:05.967</property>
    <property name="eof">pause</property>
    <property name="resource">0.6:C:/Users/Lenovo-pc/Downloads/IMG_3406.MOV</property>
    <property name="aspect_ratio">1</property>
    <property name="meta.media.nb_streams">2</property>
    <property name="meta.media.0.stream.type">audio</property>
    <property name="meta.media.0.codec.sample_fmt">fltp</property>
    <property name="meta.media.0.codec.sample_rate">44100</property>
    <property name="meta.media.0.codec.channels">2</property>
    <property name="meta.media.0.codec.layout">stereo</property>
    <property name="meta.media.0.codec.name">aac</property>
    <property name="meta.media.0.codec.long_name">AAC (Advanced Audio Coding)</property>
    <property name="meta.media.0.codec.bit_rate">160558</property>
    <property name="meta.attr.0.stream.creation_time.markup">2024-06-10T13:37:46.000000Z</property>
    <property name="meta.attr.0.stream.handler_name.markup">Core Media Audio</property>
    <property name="meta.attr.0.stream.vendor_id.markup">[0][0][0][0]</property>
    <property name="meta.media.1.stream.type">video</property>
    <property name="meta.media.1.stream.frame_rate">30</property>
    <property name="meta.media.1.stream.sample_aspect_ratio">0</property>
    <property name="meta.media.1.codec.width">1280</property>
    <property name="meta.media.1.codec.height">720</property>
    <property name="meta.media.1.codec.rotate">90</property>
    <property name="meta.media.1.codec.pix_fmt">yuv420p</property>
    <property name="meta.media.1.codec.sample_aspect_ratio">0</property>
    <property name="meta.media.1.codec.colorspace">709</property>
    <property name="meta.media.1.codec.color_trc">1</property>
    <property name="meta.media.1.codec.name">h264</property>
    <property name="meta.media.1.codec.long_name">H.264 / AVC / MPEG-4 AVC / MPEG-4 part 10</property>
    <property name="meta.media.1.codec.bit_rate">1014354</property>
    <property name="meta.attr.1.stream.creation_time.markup">2024-06-10T13:37:46.000000Z</property>
    <property name="meta.attr.1.stream.handler_name.markup">Core Media Video</property>
    <property name="meta.attr.1.stream.vendor_id.markup">[0][0][0][0]</property>
    <property name="meta.attr.major_brand.markup">mp42</property>
    <property name="meta.attr.minor_version.markup">1</property>
    <property name="meta.attr.compatible_brands.markup">isommp41mp42</property>
    <property name="meta.attr.creation_time.markup">2024-06-10T13:37:46.000000Z</property>
    <property name="seekable">1</property>
    <property name="meta.media.sample_aspect_num">1</property>
    <property name="meta.media.sample_aspect_den">1</property>
    <property name="audio_index">-1</property>
    <property name="video_index">1</property>
    <property name="warp_speed">0.6</property>
    <property name="warp_resource">C:/Users/Lenovo-pc/Downloads/IMG_3406.MOV</property>
    <property name="mlt_service">timewarp</property>
    <property name="shotcut:producer">avformat</property>
    <property name="video_delay">0</property>
    <property name="astream">-1</property>
    <property name="vstream">0</property>
    <property name="shotcut:hash">071d6b0ada134243f38c75fb4fb4b0d7</property>
    <property name="shotcut:skipConvert">1</property>
    <property name="shotcut:defaultAudioIndex">0</property>
    <property name="shotcut:caption">IMG_3406.MOV (0.6x)</property>
    <property name="xml">was here</property>
    <property name="meta.media.frame_rate_num">30</property>
    <property name="meta.media.frame_rate_den">1</property>
    <property name="meta.media.colorspace">709</property>
    <property name="meta.media.color_trc">1</property>
    <property name="meta.media.has_b_frames">1</property>
    <property name="meta.media.width">720</property>
    <property name="meta.media.height">1280</property>
    <property name="meta.media.color_range">mpeg</property>
    <property name="meta.media.top_field_first">0</property>
    <property name="meta.media.progressive">1</property>
    <property name="meta.shotcut.vui">1</property>
    <filter id="filter9" in="00:00:03.267" out="00:00:05.867">
      <property name="start">1</property>
      <property name="level">1</property>
      <property name="mlt_service">brightness</property>
      <property name="shotcut:filter">brightnessOpacity</property>
      <property name="alpha">00:00:00.000=0;00:00:00.667=1</property>
      <property name="opacity">00:00:00.000=0;00:00:00.667=1</property>
      <property name="shotcut:animIn">0</property>
      <property name="shotcut:animOut">0</property>
    </filter>
    <filter id="filter10" in="00:00:03.267" out="00:00:05.867">
      <property name="background">color:#00000000</property>
      <property name="mlt_service">affine</property>
      <property name="shotcut:filter">affineSizePosition</property>
      <property name="transition.fix_rotate_x">00:00:00.600=0;00:00:02.600=180</property>
      <property name="transition.fill">1</property>
      <property name="transition.distort">0</property>
      <property name="transition.rect">0 0 720 1280 1</property>
      <property name="transition.valign">middle</property>
      <property name="transition.halign">center</property>
      <property name="shotcut:animIn">00:00:00.000</property>
      <property name="shotcut:animOut">00:00:00.000</property>
      <property name="transition.threads">0</property>
    </filter>
  </producer>
  <producer id="producer8" in="00:00:00.000" out="00:00:01.700">
    <property name="length">00:00:01.733</property>
    <property name="eof">pause</property>
    <property name="resource">0.9:C:/Users/Lenovo-pc/Downloads/IMG_3393.MOV</property>
    <property name="aspect_ratio">1</property>
    <property name="meta.media.nb_streams">2</property>
    <property name="meta.media.0.stream.type">audio</property>
    <property name="meta.media.0.codec.sample_fmt">fltp</property>
    <property name="meta.media.0.codec.sample_rate">44100</property>
    <property name="meta.media.0.codec.channels">2</property>
    <property name="meta.media.0.codec.layout">stereo</property>
    <property name="meta.media.0.codec.name">aac</property>
    <property name="meta.media.0.codec.long_name">AAC (Advanced Audio Coding)</property>
    <property name="meta.media.0.codec.bit_rate">181075</property>
    <property name="meta.attr.0.stream.creation_time.markup">2024-06-10T13:37:32.000000Z</property>
    <property name="meta.attr.0.stream.handler_name.markup">Core Media Audio</property>
    <property name="meta.attr.0.stream.vendor_id.markup">[0][0][0][0]</property>
    <property name="meta.media.1.stream.type">video</property>
    <property name="meta.media.1.stream.frame_rate">30</property>
    <property name="meta.media.1.stream.sample_aspect_ratio">0</property>
    <property name="meta.media.1.codec.width">1280</property>
    <property name="meta.media.1.codec.height">720</property>
    <property name="meta.media.1.codec.rotate">90</property>
    <property name="meta.media.1.codec.pix_fmt">yuv420p</property>
    <property name="meta.media.1.codec.sample_aspect_ratio">0</property>
    <property name="meta.media.1.codec.colorspace">709</property>
    <property name="meta.media.1.codec.color_trc">1</property>
    <property name="meta.media.1.codec.name">h264</property>
    <property name="meta.media.1.codec.long_name">H.264 / AVC / MPEG-4 AVC / MPEG-4 part 10</property>
    <property name="meta.media.1.codec.bit_rate">665724</property>
    <property name="meta.attr.1.stream.creation_time.markup">2024-06-10T13:37:32.000000Z</property>
    <property name="meta.attr.1.stream.handler_name.markup">Core Media Video</property>
    <property name="meta.attr.1.stream.vendor_id.markup">[0][0][0][0]</property>
    <property name="meta.attr.major_brand.markup">mp42</property>
    <property name="meta.attr.minor_version.markup">1</property>
    <property name="meta.attr.compatible_brands.markup">isommp41mp42</property>
    <property name="meta.attr.creation_time.markup">2024-06-10T13:37:32.000000Z</property>
    <property name="seekable">1</property>
    <property name="meta.media.sample_aspect_num">1</property>
    <property name="meta.media.sample_aspect_den">1</property>
    <property name="audio_index">-1</property>
    <property name="video_index">1</property>
    <property name="warp_speed">0.9</property>
    <property name="warp_resource">C:/Users/Lenovo-pc/Downloads/IMG_3393.MOV</property>
    <property name="mlt_service">timewarp</property>
    <property name="shotcut:producer">avformat</property>
    <property name="video_delay">0</property>
    <property name="astream">-1</property>
    <property name="vstream">0</property>
    <property name="shotcut:hash">51167b41c8d18427ded099ca685a384c</property>
    <property name="shotcut:skipConvert">1</property>
    <property name="shotcut:defaultAudioIndex">0</property>
    <property name="shotcut:caption">IMG_3393.MOV (0.9x)</property>
    <property name="xml">was here</property>
    <property name="meta.media.frame_rate_num">30</property>
    <property name="meta.media.frame_rate_den">1</property>
    <property name="meta.media.colorspace">709</property>
    <property name="meta.media.color_trc">1</property>
    <property name="meta.media.has_b_frames">1</property>
    <property name="meta.media.width">720</property>
    <property name="meta.media.height">1280</property>
    <property name="meta.media.color_range">mpeg</property>
    <property name="meta.media.top_field_first">0</property>
    <property name="meta.media.progressive">1</property>
  </producer>
  <producer id="producer9" in="00:00:00.000" out="00:00:01.567">
    <property name="length">00:00:01.600</property>
    <property name="eof">pause</property>
    <property name="resource">0.6:C:/Users/Lenovo-pc/Downloads/IMG_3395.MOV</property>
    <property name="aspect_ratio">1</property>
    <property name="meta.media.nb_streams">2</property>
    <property name="meta.media.0.stream.type">audio</property>
    <property name="meta.media.0.codec.sample_fmt">fltp</property>
    <property name="meta.media.0.codec.sample_rate">44100</property>
    <property name="meta.media.0.codec.channels">2</property>
    <property name="meta.media.0.codec.layout">stereo</property>
    <property name="meta.media.0.codec.name">aac</property>
    <property name="meta.media.0.codec.long_name">AAC (Advanced Audio Coding)</property>
    <property name="meta.media.0.codec.bit_rate">177112</property>
    <property name="meta.attr.0.stream.creation_time.markup">2024-06-10T13:37:36.000000Z</property>
    <property name="meta.attr.0.stream.handler_name.markup">Core Media Audio</property>
    <property name="meta.attr.0.stream.vendor_id.markup">[0][0][0][0]</property>
    <property name="meta.media.1.stream.type">video</property>
    <property name="meta.media.1.stream.frame_rate">30</property>
    <property name="meta.media.1.stream.sample_aspect_ratio">0</property>
    <property name="meta.media.1.codec.width">1280</property>
    <property name="meta.media.1.codec.height">720</property>
    <property name="meta.media.1.codec.rotate">90</property>
    <property name="meta.media.1.codec.pix_fmt">yuv420p</property>
    <property name="meta.media.1.codec.sample_aspect_ratio">0</property>
    <property name="meta.media.1.codec.colorspace">709</property>
    <property name="meta.media.1.codec.color_trc">1</property>
    <property name="meta.media.1.codec.name">h264</property>
    <property name="meta.media.1.codec.long_name">H.264 / AVC / MPEG-4 AVC / MPEG-4 part 10</property>
    <property name="meta.media.1.codec.bit_rate">857991</property>
    <property name="meta.attr.1.stream.creation_time.markup">2024-06-10T13:37:36.000000Z</property>
    <property name="meta.attr.1.stream.handler_name.markup">Core Media Video</property>
    <property name="meta.attr.1.stream.vendor_id.markup">[0][0][0][0]</property>
    <property name="meta.attr.major_brand.markup">mp42</property>
    <property name="meta.attr.minor_version.markup">1</property>
    <property name="meta.attr.compatible_brands.markup">isommp41mp42</property>
    <property name="meta.attr.creation_time.markup">2024-06-10T13:37:36.000000Z</property>
    <property name="seekable">1</property>
    <property name="meta.media.sample_aspect_num">1</property>
    <property name="meta.media.sample_aspect_den">1</property>
    <property name="audio_index">-1</property>
    <property name="video_index">1</property>
    <property name="warp_speed">0.6</property>
    <property name="warp_resource">C:/Users/Lenovo-pc/Downloads/IMG_3395.MOV</property>
    <property name="mlt_service">timewarp</property>
    <property name="shotcut:producer">avformat</property>
    <property name="video_delay">0</property>
    <property name="astream">-1</property>
    <property name="vstream">0</property>
    <property name="shotcut:hash">c47917fc70074961ce4cd79cfd453666</property>
    <property name="shotcut:skipConvert">1</property>
    <property name="shotcut:defaultAudioIndex">0</property>
    <property name="shotcut:caption">IMG_3395.MOV (0.6x)</property>
    <property name="xml">was here</property>
    <property name="meta.media.frame_rate_num">30</property>
    <property name="meta.media.frame_rate_den">1</property>
    <property name="meta.media.colorspace">709</property>
    <property name="meta.media.color_trc">1</property>
    <property name="meta.media.has_b_frames">1</property>
    <property name="meta.media.width">720</property>
    <property name="meta.media.height">1280</property>
    <property name="meta.media.color_range">mpeg</property>
    <property name="meta.media.top_field_first">0</property>
    <property name="meta.media.progressive">1</property>
  </producer>
  <producer id="producer10" in="00:00:00.000" out="00:00:01.700">
    <property name="length">00:00:01.733</property>
    <property name="eof">pause</property>
    <property name="resource">0.9:C:/Users/Lenovo-pc/Downloads/IMG_3396.MOV</property>
    <property name="aspect_ratio">1</property>
    <property name="meta.media.nb_streams">2</property>
    <property name="meta.media.0.stream.type">audio</property>
    <property name="meta.media.0.codec.sample_fmt">fltp</property>
    <property name="meta.media.0.codec.sample_rate">44100</property>
    <property name="meta.media.0.codec.channels">2</property>
    <property name="meta.media.0.codec.layout">stereo</property>
    <property name="meta.media.0.codec.name">aac</property>
    <property name="meta.media.0.codec.long_name">AAC (Advanced Audio Coding)</property>
    <property name="meta.media.0.codec.bit_rate">178491</property>
    <property name="meta.attr.0.stream.creation_time.markup">2024-06-10T13:37:40.000000Z</property>
    <property name="meta.attr.0.stream.handler_name.markup">Core Media Audio</property>
    <property name="meta.attr.0.stream.vendor_id.markup">[0][0][0][0]</property>
    <property name="meta.media.1.stream.type">video</property>
    <property name="meta.media.1.stream.frame_rate">30.0319</property>
    <property name="meta.media.1.stream.sample_aspect_ratio">0</property>
    <property name="meta.media.1.codec.width">1280</property>
    <property name="meta.media.1.codec.height">720</property>
    <property name="meta.media.1.codec.rotate">90</property>
    <property name="meta.media.1.codec.pix_fmt">yuv420p</property>
    <property name="meta.media.1.codec.sample_aspect_ratio">0</property>
    <property name="meta.media.1.codec.colorspace">709</property>
    <property name="meta.media.1.codec.color_trc">1</property>
    <property name="meta.media.1.codec.name">h264</property>
    <property name="meta.media.1.codec.long_name">H.264 / AVC / MPEG-4 AVC / MPEG-4 part 10</property>
    <property name="meta.media.1.codec.bit_rate">589132</property>
    <property name="meta.attr.1.stream.creation_time.markup">2024-06-10T13:37:40.000000Z</property>
    <property name="meta.attr.1.stream.handler_name.markup">Core Media Video</property>
    <property name="meta.attr.1.stream.vendor_id.markup">[0][0][0][0]</property>
    <property name="meta.attr.major_brand.markup">mp42</property>
    <property name="meta.attr.minor_version.markup">1</property>
    <property name="meta.attr.compatible_brands.markup">isommp41mp42</property>
    <property name="meta.attr.creation_time.markup">2024-06-10T13:37:40.000000Z</property>
    <property name="seekable">1</property>
    <property name="meta.media.sample_aspect_num">1</property>
    <property name="meta.media.sample_aspect_den">1</property>
    <property name="audio_index">-1</property>
    <property name="video_index">1</property>
    <property name="warp_speed">0.9</property>
    <property name="warp_resource">C:/Users/Lenovo-pc/Downloads/IMG_3396.MOV</property>
    <property name="mlt_service">timewarp</property>
    <property name="shotcut:producer">avformat</property>
    <property name="video_delay">0</property>
    <property name="astream">-1</property>
    <property name="vstream">0</property>
    <property name="shotcut:hash">03161f8e737e82425907a4eab3e17c82</property>
    <property name="shotcut:skipConvert">1</property>
    <property name="shotcut:defaultAudioIndex">0</property>
    <property name="shotcut:caption">IMG_3396.MOV (0.9x)</property>
    <property name="xml">was here</property>
    <property name="meta.media.frame_rate_num">9400</property>
    <property name="meta.media.frame_rate_den">313</property>
    <property name="meta.media.colorspace">709</property>
    <property name="meta.media.color_trc">1</property>
    <property name="meta.media.has_b_frames">1</property>
    <property name="meta.media.width">720</property>
    <property name="meta.media.height">1280</property>
    <property name="meta.media.color_range">mpeg</property>
    <property name="meta.media.top_field_first">0</property>
    <property name="meta.media.progressive">1</property>
  </producer>
  <producer id="producer11" in="00:00:00.000" out="00:00:04.967">
    <property name="length">00:00:05.000</property>
    <property name="eof">pause</property>
    <property name="resource">0.9:C:/Users/Lenovo-pc/Downloads/IMG_3404.MOV</property>
    <property name="aspect_ratio">1</property>
    <property name="meta.media.nb_streams">2</property>
    <property name="meta.media.0.stream.type">audio</property>
    <property name="meta.media.0.codec.sample_fmt">fltp</property>
    <property name="meta.media.0.codec.sample_rate">44100</property>
    <property name="meta.media.0.codec.channels">2</property>
    <property name="meta.media.0.codec.layout">stereo</property>
    <property name="meta.media.0.codec.name">aac</property>
    <property name="meta.media.0.codec.long_name">AAC (Advanced Audio Coding)</property>
    <property name="meta.media.0.codec.bit_rate">176617</property>
    <property name="meta.attr.0.stream.creation_time.markup">2024-06-10T13:37:50.000000Z</property>
    <property name="meta.attr.0.stream.handler_name.markup">Core Media Audio</property>
    <property name="meta.attr.0.stream.vendor_id.markup">[0][0][0][0]</property>
    <property name="meta.media.1.stream.type">video</property>
    <property name="meta.media.1.stream.frame_rate">30</property>
    <property name="meta.media.1.stream.sample_aspect_ratio">0</property>
    <property name="meta.media.1.codec.width">1280</property>
    <property name="meta.media.1.codec.height">720</property>
    <property name="meta.media.1.codec.rotate">180</property>
    <property name="meta.media.1.codec.pix_fmt">yuv420p</property>
    <property name="meta.media.1.codec.sample_aspect_ratio">0</property>
    <property name="meta.media.1.codec.colorspace">709</property>
    <property name="meta.media.1.codec.color_trc">1</property>
    <property name="meta.media.1.codec.name">h264</property>
    <property name="meta.media.1.codec.long_name">H.264 / AVC / MPEG-4 AVC / MPEG-4 part 10</property>
    <property name="meta.media.1.codec.bit_rate">2497470</property>
    <property name="meta.attr.1.stream.creation_time.markup">2024-06-10T13:37:50.000000Z</property>
    <property name="meta.attr.1.stream.handler_name.markup">Core Media Video</property>
    <property name="meta.attr.1.stream.vendor_id.markup">[0][0][0][0]</property>
    <property name="meta.attr.major_brand.markup">mp42</property>
    <property name="meta.attr.minor_version.markup">1</property>
    <property name="meta.attr.compatible_brands.markup">isommp41mp42</property>
    <property name="meta.attr.creation_time.markup">2024-06-10T13:37:50.000000Z</property>
    <property name="seekable">1</property>
    <property name="meta.media.sample_aspect_num">1</property>
    <property name="meta.media.sample_aspect_den">1</property>
    <property name="audio_index">-1</property>
    <property name="video_index">1</property>
    <property name="warp_speed">0.9</property>
    <property name="warp_resource">C:/Users/Lenovo-pc/Downloads/IMG_3404.MOV</property>
    <property name="mlt_service">timewarp</property>
    <property name="shotcut:producer">avformat</property>
    <property name="video_delay">0</property>
    <property name="astream">-1</property>
    <property name="vstream">0</property>
    <property name="shotcut:hash">e955429877158288c06ddd6dd058387e</property>
    <property name="shotcut:skipConvert">1</property>
    <property name="shotcut:defaultAudioIndex">0</property>
    <property name="shotcut:caption">IMG_3404.MOV (0.9x)</property>
    <property name="xml">was here</property>
    <property name="meta.media.frame_rate_num">30</property>
    <property name="meta.media.frame_rate_den">1</property>
    <property name="meta.media.colorspace">709</property>
    <property name="meta.media.color_trc">1</property>
    <property name="meta.media.has_b_frames">1</property>
    <property name="meta.media.width">1280</property>
    <property name="meta.media.height">720</property>
    <property name="meta.media.aspect_ratio">1</property>
    <property name="meta.media.color_range">mpeg</property>
    <property name="meta.media.top_field_first">0</property>
    <property name="meta.media.progressive">1</property>
  </producer>
  <producer id="producer12" in="00:00:00.000" out="00:00:04.533">
    <property name="length">00:00:04.567</property>
    <property name="eof">pause</property>
    <property name="resource">1.2:C:/Users/Lenovo-pc/Downloads/IMG_3431.MOV</property>
    <property name="aspect_ratio">1</property>
    <property name="meta.media.nb_streams">2</property>
    <property name="meta.media.0.stream.type">audio</property>
    <property name="meta.media.0.codec.sample_fmt">fltp</property>
    <property name="meta.media.0.codec.sample_rate">44100</property>
    <property name="meta.media.0.codec.channels">2</property>
    <property name="meta.media.0.codec.layout">stereo</property>
    <property name="meta.media.0.codec.name">aac</property>
    <property name="meta.media.0.codec.long_name">AAC (Advanced Audio Coding)</property>
    <property name="meta.media.0.codec.bit_rate">170970</property>
    <property name="meta.attr.0.stream.creation_time.markup">2024-06-10T17:00:26.000000Z</property>
    <property name="meta.attr.0.stream.handler_name.markup">Core Media Audio</property>
    <property name="meta.attr.0.stream.vendor_id.markup">[0][0][0][0]</property>
    <property name="meta.media.1.stream.type">video</property>
    <property name="meta.media.1.stream.frame_rate">30</property>
    <property name="meta.media.1.stream.sample_aspect_ratio">0</property>
    <property name="meta.media.1.codec.width">1280</property>
    <property name="meta.media.1.codec.height">720</property>
    <property name="meta.media.1.codec.rotate">180</property>
    <property name="meta.media.1.codec.pix_fmt">yuv420p</property>
    <property name="meta.media.1.codec.sample_aspect_ratio">0</property>
    <property name="meta.media.1.codec.colorspace">709</property>
    <property name="meta.media.1.codec.color_trc">1</property>
    <property name="meta.media.1.codec.name">h264</property>
    <property name="meta.media.1.codec.long_name">H.264 / AVC / MPEG-4 AVC / MPEG-4 part 10</property>
    <property name="meta.media.1.codec.bit_rate">2487147</property>
    <property name="meta.attr.1.stream.creation_time.markup">2024-06-10T17:00:26.000000Z</property>
    <property name="meta.attr.1.stream.handler_name.markup">Core Media Video</property>
    <property name="meta.attr.1.stream.vendor_id.markup">[0][0][0][0]</property>
    <property name="meta.attr.major_brand.markup">mp42</property>
    <property name="meta.attr.minor_version.markup">1</property>
    <property name="meta.attr.compatible_brands.markup">isommp41mp42</property>
    <property name="meta.attr.creation_time.markup">2024-06-10T17:00:26.000000Z</property>
    <property name="seekable">1</property>
    <property name="meta.media.sample_aspect_num">1</property>
    <property name="meta.media.sample_aspect_den">1</property>
    <property name="audio_index">-1</property>
    <property name="video_index">1</property>
    <property name="warp_speed">1.2</property>
    <property name="warp_resource">C:/Users/Lenovo-pc/Downloads/IMG_3431.MOV</property>
    <property name="mlt_service">timewarp</property>
    <property name="shotcut:producer">avformat</property>
    <property name="video_delay">0</property>
    <property name="astream">-1</property>
    <property name="vstream">0</property>
    <property name="shotcut:hash">92239bad8d90f75e91e2ab8a77b83da5</property>
    <property name="shotcut:skipConvert">1</property>
    <property name="shotcut:defaultAudioIndex">0</property>
    <property name="shotcut:caption">IMG_3431.MOV (1.2x)</property>
    <property name="xml">was here</property>
    <property name="meta.media.frame_rate_num">30</property>
    <property name="meta.media.frame_rate_den">1</property>
    <property name="meta.media.colorspace">709</property>
    <property name="meta.media.color_trc">1</property>
    <property name="meta.media.has_b_frames">1</property>
    <property name="meta.media.width">1280</property>
    <property name="meta.media.height">720</property>
    <property name="meta.media.aspect_ratio">1</property>
    <property name="meta.media.color_range">mpeg</property>
    <property name="meta.media.top_field_first">0</property>
    <property name="meta.media.progressive">1</property>
  </producer>
  <producer id="producer13" in="00:00:00.000" out="00:00:04.533">
    <property name="length">00:00:04.567</property>
    <property name="eof">pause</property>
    <property name="resource">1.2:C:/Users/Lenovo-pc/Downloads/IMG_3431.MOV</property>
    <property name="aspect_ratio">1</property>
    <property name="meta.media.nb_streams">2</property>
    <property name="meta.media.0.stream.type">audio</property>
    <property name="meta.media.0.codec.sample_fmt">fltp</property>
    <property name="meta.media.0.codec.sample_rate">44100</property>
    <property name="meta.media.0.codec.channels">2</property>
    <property name="meta.media.0.codec.layout">stereo</property>
    <property name="meta.media.0.codec.name">aac</property>
    <property name="meta.media.0.codec.long_name">AAC (Advanced Audio Coding)</property>
    <property name="meta.media.0.codec.bit_rate">170970</property>
    <property name="meta.attr.0.stream.creation_time.markup">2024-06-10T17:00:26.000000Z</property>
    <property name="meta.attr.0.stream.handler_name.markup">Core Media Audio</property>
    <property name="meta.attr.0.stream.vendor_id.markup">[0][0][0][0]</property>
    <property name="meta.media.1.stream.type">video</property>
    <property name="meta.media.1.stream.frame_rate">30</property>
    <property name="meta.media.1.stream.sample_aspect_ratio">0</property>
    <property name="meta.media.1.codec.width">1280</property>
    <property name="meta.media.1.codec.height">720</property>
    <property name="meta.media.1.codec.rotate">180</property>
    <property name="meta.media.1.codec.pix_fmt">yuv420p</property>
    <property name="meta.media.1.codec.sample_aspect_ratio">0</property>
    <property name="meta.media.1.codec.colorspace">709</property>
    <property name="meta.media.1.codec.color_trc">1</property>
    <property name="meta.media.1.codec.name">h264</property>
    <property name="meta.media.1.codec.long_name">H.264 / AVC / MPEG-4 AVC / MPEG-4 part 10</property>
    <property name="meta.media.1.codec.bit_rate">2487147</property>
    <property name="meta.attr.1.stream.creation_time.markup">2024-06-10T17:00:26.000000Z</property>
    <property name="meta.attr.1.stream.handler_name.markup">Core Media Video</property>
    <property name="meta.attr.1.stream.vendor_id.markup">[0][0][0][0]</property>
    <property name="meta.attr.major_brand.markup">mp42</property>
    <property name="meta.attr.minor_version.markup">1</property>
    <property name="meta.attr.compatible_brands.markup">isommp41mp42</property>
    <property name="meta.attr.creation_time.markup">2024-06-10T17:00:26.000000Z</property>
    <property name="seekable">1</property>
    <property name="meta.media.sample_aspect_num">1</property>
    <property name="meta.media.sample_aspect_den">1</property>
    <property name="audio_index">-1</property>
    <property name="video_index">1</property>
    <property name="warp_speed">1.2</property>
    <property name="warp_resource">C:/Users/Lenovo-pc/Downloads/IMG_3431.MOV</property>
    <property name="mlt_service">timewarp</property>
    <property name="shotcut:producer">avformat</property>
    <property name="video_delay">0</property>
    <property name="astream">-1</property>
    <property name="vstream">0</property>
    <property name="shotcut:hash">92239bad8d90f75e91e2ab8a77b83da5</property>
    <property name="shotcut:skipConvert">1</property>
    <property name="shotcut:defaultAudioIndex">0</property>
    <property name="shotcut:caption">IMG_3431.MOV (1.2x)</property>
    <property name="xml">was here</property>
    <property name="meta.media.frame_rate_num">30</property>
    <property name="meta.media.frame_rate_den">1</property>
    <property name="meta.media.colorspace">709</property>
    <property name="meta.media.color_trc">1</property>
    <property name="meta.media.has_b_frames">1</property>
    <property name="meta.media.width">1280</property>
    <property name="meta.media.height">720</property>
    <property name="meta.media.aspect_ratio">1</property>
    <property name="meta.media.color_range">mpeg</property>
    <property name="meta.media.top_field_first">0</property>
    <property name="meta.media.progressive">1</property>
    <filter id="filter11" in="00:00:02.700" out="00:00:03.533">
      <property name="version">0.9</property>
      <property name="mlt_service">frei0r.cairoimagegrid</property>
      <property name="0">0.1</property>
      <property name="1">0.1</property>
    </filter>
  </producer>
  <playlist id="playlist2">
    <property name="shotcut:video">1</property>
    <property name="shotcut:name">V2</property>
    <blank length="00:00:18.267"/>
    <entry producer="producer7" in="00:00:03.267" out="00:00:05.867"/>
    <entry producer="producer8" in="00:00:00.000" out="00:00:01.433"/>
    <entry producer="producer9" in="00:00:00.167" out="00:00:01.567"/>
    <entry producer="producer10" in="00:00:00.000" out="00:00:01.700"/>
    <entry producer="producer11" in="00:00:00.000" out="00:00:02.600"/>
    <entry producer="producer12" in="00:00:00.600" out="00:00:02.667"/>
    <entry producer="producer13" in="00:00:02.700" out="00:00:03.533"/>
  </playlist>
  <producer id="producer14" in="00:00:00.000" out="03:59:59.967">
    <property name="length">04:00:00.000</property>
    <property name="eof">pause</property>
    <property name="resource">Still_transparent.png</property>
    <property name="ttl">1</property>
    <property name="aspect_ratio">1</property>
    <property name="meta.media.progressive">1</property>
    <property name="seekable">1</property>
    <property name="format">2</property>
    <property name="meta.media.width">720</property>
    <property name="meta.media.height">1280</property>
    <property name="mlt_service">qimage</property>
    <property name="creation_time">2024-06-10T16:21:14</property>
    <property name="shotcut:skipConvert">1</property>
    <property name="xml">was here</property>
    <property name="shotcut:hash">1a75f9d2c23932a865044b2c3709e2da</property>
    <property name="shotcut:caption">Still_transparent.png</property>
    <property name="ignore_points">1</property>
  </producer>
  <playlist id="playlist3">
    <property name="shotcut:video">1</property>
    <property name="shotcut:name">Still_transparent</property>
    <entry producer="producer14" in="00:00:00.000" out="00:00:02.300"/>
  </playlist>
  <producer id="producer15" in="00:00:00.000" out="03:59:59.967">
    <property name="length">04:00:00.000</property>
    <property name="eof">pause</property>
    <property name="resource">#00000000</property>
    <property name="aspect_ratio">1</property>
    <property name="mlt_service">color</property>
    <property name="mlt_image_format">rgba</property>
    <property name="shotcut:caption">transparent</property>
    <property name="shotcut:detail">transparent</property>
    <property name="ignore_points">1</property>
    <property name="meta.shotcut.vui">1</property>
    <property name="xml">was here</property>
    <property name="seekable">1</property>
    <filter id="filter12" out="00:00:31.133">
      <property name="argument">Anja Vidas - Digitalni multimedij 1</property>
      <property name="geometry">4 12 528 99 1</property>
      <property name="family">Verdana</property>
      <property name="size">64</property>
      <property name="weight">400</property>
      <property name="style">normal</property>
      <property name="fgcolour">#ffffffff</property>
      <property name="bgcolour">#ff6d4a35</property>
      <property name="olcolour">#aa000000</property>
      <property name="pad">2</property>
      <property name="halign">center</property>
      <property name="valign">top</property>
      <property name="outline">1</property>
      <property name="opacity">1</property>
      <property name="mlt_service">dynamictext</property>
      <property name="shotcut:filter">dynamicText</property>
      <property name="shotcut:usePointSize">1</property>
      <property name="shotcut:pointSize">48</property>
    </filter>
  </producer>
  <playlist id="playlist4">
    <property name="shotcut:video">1</property>
    <property name="shotcut:name">tekst</property>
    <entry producer="producer15" in="00:00:00.000" out="00:00:31.133"/>
  </playlist>
  <producer id="producer16" in="00:00:00.000" out="03:59:59.967">
    <property name="length">04:00:00.000</property>
    <property name="eof">pause</property>
    <property name="resource">#00000000</property>
    <property name="aspect_ratio">1</property>
    <property name="mlt_service">color</property>
    <property name="mlt_image_format">rgba</property>
    <property name="shotcut:caption">transparent</property>
    <property name="shotcut:detail">transparent</property>
    <property name="ignore_points">0</property>
    <property name="meta.shotcut.vui">1</property>
    <property name="xml">was here</property>
    <property name="seekable">1</property>
    <filter id="filter13" out="00:00:02.267">
      <property name="argument">Reklama za čokoladno mlijeko</property>
      <property name="geometry">39 1055 662 186 1</property>
      <property name="family">Verdana</property>
      <property name="size">96</property>
      <property name="weight">400</property>
      <property name="style">italic</property>
      <property name="fgcolour">#ffffffff</property>
      <property name="bgcolour">#ff000000</property>
      <property name="olcolour">#aa000000</property>
      <property name="pad">3</property>
      <property name="halign">center</property>
      <property name="valign">top</property>
      <property name="outline">1</property>
      <property name="opacity">1</property>
      <property name="mlt_service">dynamictext</property>
      <property name="shotcut:filter">dynamicText</property>
      <property name="shotcut:usePointSize">1</property>
      <property name="shotcut:pointSize">72</property>
    </filter>
    <filter id="filter14" out="00:00:02.267">
      <property name="background">color:#00000000</property>
      <property name="mlt_service">affine</property>
      <property name="shotcut:filter">affineSizePosition</property>
      <property name="transition.fix_rotate_x">00:00:00.000=0;00:00:00.967=0</property>
      <property name="transition.fill">1</property>
      <property name="transition.distort">0</property>
      <property name="transition.rect">00:00:00.000=0 1280 720 1280 1;00:00:00.967=0 0 720 1280 1</property>
      <property name="transition.valign">middle</property>
      <property name="transition.halign">center</property>
      <property name="shotcut:animIn">00:00:00.000</property>
      <property name="shotcut:animOut">00:00:00.000</property>
      <property name="transition.threads">0</property>
    </filter>
  </producer>
  <playlist id="playlist5">
    <property name="shotcut:video">1</property>
    <property name="shotcut:name">V5</property>
    <entry producer="producer16" in="00:00:00.000" out="00:00:02.267"/>
  </playlist>
  <playlist id="playlist6">
    <property name="shotcut:audio">1</property>
    <property name="shotcut:name">A2</property>
    <blank length="00:00:00.033"/>
  </playlist>
  <tractor id="tractor0" title="Shotcut version 24.04.28" in="00:00:00.000" out="00:00:31.133">
    <property name="shotcut">1</property>
    <property name="shotcut:projectAudioChannels">2</property>
    <property name="shotcut:projectFolder">1</property>
    <property name="shotcut:scaleFactor">3.31795</property>
    <track producer="background"/>
    <track producer="playlist0"/>
    <track producer="playlist1" hide="video"/>
    <track producer="playlist2"/>
    <track producer="playlist3"/>
    <track producer="playlist4"/>
    <track producer="playlist5"/>
    <track producer="playlist6" hide="video"/>
    <transition id="transition0">
      <property name="a_track">0</property>
      <property name="b_track">1</property>
      <property name="mlt_service">mix</property>
      <property name="always_active">1</property>
      <property name="sum">1</property>
    </transition>
    <transition id="transition1">
      <property name="a_track">0</property>
      <property name="b_track">1</property>
      <property name="version">0.1</property>
      <property name="mlt_service">frei0r.cairoblend</property>
      <property name="disable">1</property>
    </transition>
    <transition id="transition2">
      <property name="a_track">0</property>
      <property name="b_track">2</property>
      <property name="mlt_service">mix</property>
      <property name="always_active">1</property>
      <property name="sum">1</property>
    </transition>
    <transition id="transition3">
      <property name="a_track">0</property>
      <property name="b_track">3</property>
      <property name="mlt_service">mix</property>
      <property name="always_active">1</property>
      <property name="sum">1</property>
    </transition>
    <transition id="transition4">
      <property name="a_track">1</property>
      <property name="b_track">3</property>
      <property name="version">0.1</property>
      <property name="mlt_service">frei0r.cairoblend</property>
      <property name="1">normal</property>
      <property name="disable">0</property>
    </transition>
    <transition id="transition5">
      <property name="a_track">0</property>
      <property name="b_track">4</property>
      <property name="mlt_service">mix</property>
      <property name="always_active">1</property>
      <property name="sum">1</property>
    </transition>
    <transition id="transition6">
      <property name="a_track">1</property>
      <property name="b_track">4</property>
      <property name="version">0.1</property>
      <property name="mlt_service">frei0r.cairoblend</property>
      <property name="1">normal</property>
      <property name="disable">0</property>
    </transition>
    <transition id="transition7">
      <property name="a_track">0</property>
      <property name="b_track">5</property>
      <property name="mlt_service">mix</property>
      <property name="always_active">1</property>
      <property name="sum">1</property>
    </transition>
    <transition id="transition8">
      <property name="a_track">1</property>
      <property name="b_track">5</property>
      <property name="version">0.1</property>
      <property name="mlt_service">frei0r.cairoblend</property>
      <property name="threads">0</property>
      <property name="disable">0</property>
    </transition>
    <transition id="transition9">
      <property name="a_track">0</property>
      <property name="b_track">6</property>
      <property name="mlt_service">mix</property>
      <property name="always_active">1</property>
      <property name="sum">1</property>
    </transition>
    <transition id="transition10">
      <property name="a_track">1</property>
      <property name="b_track">6</property>
      <property name="version">0.1</property>
      <property name="mlt_service">frei0r.cairoblend</property>
      <property name="threads">0</property>
      <property name="disable">0</property>
    </transition>
    <transition id="transition11">
      <property name="a_track">0</property>
      <property name="b_track">7</property>
      <property name="mlt_service">mix</property>
      <property name="always_active">1</property>
      <property name="sum">1</property>
    </transition>
  </tractor>
</mlt>
